<?xml version="1.0" standalone="no"?>
<!DOCTYPE svg PUBLIC "-//W3C//DTD SVG 20010904//EN"
 "http://www.w3.org/TR/2001/REC-SVG-20010904/DTD/svg10.dtd">
<svg version="1.0" xmlns="http://www.w3.org/2000/svg"
 width="800.000000pt" height="800.000000pt" viewBox="0 0 800.000000 800.000000"
 preserveAspectRatio="xMidYMid meet">
<metadata>
Created by potrace 1.11, written by Peter Selinger 2001-2013
</metadata>
<g transform="translate(0.000000,800.000000) scale(0.100000,-0.100000)"
fill="#000000" stroke="none">
<path d="M2974 7985 c-4 -8 -1 -21 5 -28 5 -7 8 -25 5 -40 -2 -15 0 -27 6 -27
7 0 7 -7 -1 -21 -6 -12 -7 -19 -1 -15 14 8 24 -68 12 -98 -7 -19 -6 -26 3 -26
7 0 12 -13 12 -30 0 -16 -4 -30 -10 -30 -6 0 -5 -3 1 -8 17 -11 26 -49 14 -57
-6 -3 -7 -11 -4 -17 4 -7 2 -8 -4 -4 -7 4 -13 1 -13 -6 -1 -7 -2 -17 -4 -23
-1 -5 -3 -15 -3 -21 -2 -13 -34 -28 -112 -54 -99 -33 -133 -40 -272 -54 -145
-15 -181 -27 -220 -75 -44 -52 -91 -65 -268 -76 -31 -2 -76 -6 -100 -9 -25 -3
-65 -8 -90 -11 -25 -3 -56 -7 -70 -10 -14 -2 -79 -7 -145 -10 -66 -4 -138 -8
-160 -10 -22 -2 -83 -7 -135 -10 -52 -4 -108 -8 -125 -10 -16 -2 -66 -7 -110
-10 -44 -3 -105 -10 -135 -15 -30 -4 -62 -8 -70 -8 -24 0 -212 -14 -229 -17
-9 -2 -22 -4 -28 -4 -10 -1 -13 -62 -13 -271 0 -252 1 -269 18 -264 13 5 14 4
3 -4 -8 -6 -10 -15 -6 -22 5 -8 4 -11 -3 -6 -7 4 -10 -28 -9 -108 1 -101 3
-114 16 -103 11 9 13 9 8 0 -4 -6 -3 -14 2 -17 5 -4 12 2 14 11 4 15 6 14 12
-5 9 -26 29 -24 33 4 3 16 1 17 -7 4 -9 -12 -10 -10 -9 11 1 17 7 25 15 22 7
-3 13 0 13 6 0 6 -5 11 -10 11 -6 0 -19 8 -30 18 -19 17 -19 18 6 20 15 1 27
-4 31 -14 3 -8 12 -13 19 -10 7 3 16 1 19 -4 4 -6 2 -10 -3 -10 -5 0 -14 -11
-20 -25 -9 -20 -9 -23 3 -18 20 7 19 -6 -3 -30 -13 -16 -14 -19 -2 -15 19 6
43 52 30 56 -20 7 -9 20 13 16 19 -4 19 -3 3 4 -17 8 -17 9 -2 25 10 9 15 21
11 26 -3 5 4 13 16 16 17 6 19 9 8 16 -20 12 -29 11 -27 -3 2 -7 -2 -12 -9
-11 -7 2 -10 -3 -8 -10 3 -7 -4 -13 -20 -13 -22 -2 -24 1 -19 25 9 36 13 41
30 41 8 0 14 5 14 10 0 6 5 10 11 10 5 0 8 -4 5 -9 -11 -18 26 -20 57 -4 18 9
42 16 54 14 31 -3 49 9 32 21 -11 8 -11 9 1 5 8 -2 17 -12 18 -22 3 -12 0 -15
-9 -10 -9 6 -11 3 -6 -7 7 -21 -39 -34 -59 -17 -10 8 -14 8 -14 1 0 -14 35
-34 44 -25 3 3 6 -1 6 -10 0 -9 0 -20 1 -24 0 -4 -5 -9 -12 -12 -7 -2 -9 1 -4
9 5 9 4 11 -3 6 -7 -4 -12 -2 -12 5 0 7 -3 10 -6 6 -10 -10 7 -48 19 -41 7 3
3 -2 -7 -10 -17 -14 -17 -16 -4 -16 19 0 33 -18 23 -28 -3 -3 -10 0 -15 8 -5
8 -12 11 -16 7 -9 -9 16 -38 27 -31 5 3 12 -2 15 -10 3 -9 13 -16 21 -16 11 0
13 7 9 26 -6 23 -5 25 16 18 13 -3 26 -12 30 -18 5 -8 13 -6 25 7 9 9 12 17 6
17 -6 0 -13 -5 -15 -12 -3 -9 -6 -9 -12 0 -4 8 2 16 18 22 14 5 26 12 26 15 0
4 -4 3 -10 0 -6 -3 -7 1 -4 9 3 9 1 16 -5 16 -6 0 -11 -6 -11 -14 0 -8 -7 -17
-16 -20 -25 -10 -29 -7 -11 7 9 6 18 29 20 50 3 27 1 35 -7 28 -13 -11 -42 -9
-53 4 -4 4 -3 5 4 1 14 -8 53 27 53 48 0 8 -4 18 -10 21 -6 4 -10 -5 -10 -19
0 -16 -6 -26 -15 -26 -11 0 -12 5 -6 23 5 14 5 30 0 40 -7 11 -6 17 1 17 5 0
10 -4 10 -10 0 -14 27 -12 33 3 4 9 6 9 6 0 1 -7 8 -10 16 -7 10 4 15 0 15
-15 0 -23 15 -29 23 -8 4 9 8 8 16 -3 9 -12 11 -11 11 8 0 12 4 22 9 22 12 0
22 -44 11 -48 -6 -2 -10 -8 -10 -13 0 -4 7 -6 16 -2 10 4 14 13 10 29 -3 12
-2 26 4 29 5 3 10 1 10 -4 0 -6 5 -11 11 -11 5 0 7 5 3 12 -5 7 -2 9 7 6 10
-4 15 1 16 13 1 10 -2 19 -8 19 -13 0 -11 27 2 36 13 8 36 -13 25 -23 -4 -4
-11 -1 -16 7 -12 19 -13 5 -1 -18 5 -9 12 -25 15 -34 6 -19 26 -25 26 -8 0 6
-4 10 -10 10 -5 0 -10 9 -10 19 0 15 5 18 23 13 21 -5 21 -5 4 12 -21 22 -22
30 -1 22 9 -4 24 -1 32 6 13 11 14 11 7 -2 -16 -26 -14 -38 6 -33 10 3 16 10
12 16 -4 6 0 8 10 4 10 -3 17 -2 17 2 0 5 3 17 6 25 5 12 2 15 -11 10 -13 -5
-16 -3 -13 7 3 8 14 14 25 15 15 1 19 -4 16 -17 -3 -10 2 -28 11 -41 9 -12 16
-35 16 -51 0 -23 3 -28 18 -23 16 6 16 5 0 -7 -15 -12 -15 -16 -3 -41 13 -25
13 -27 -1 -22 -9 3 -21 6 -27 6 -8 0 -7 3 2 9 10 7 11 13 2 30 -18 32 -29 25
-25 -16 4 -42 22 -106 23 -84 1 9 5 10 14 4 14 -11 27 -11 45 0 6 5 18 5 25 1
9 -5 9 -4 0 6 -7 7 -17 9 -25 4 -28 -18 -37 -12 -21 12 12 19 19 22 29 13 9
-7 14 -8 14 -1 0 6 -6 13 -12 16 -10 3 -8 8 4 15 19 13 13 51 -9 51 -13 0 -13
3 -3 15 10 12 16 13 26 4 8 -6 12 -14 9 -18 -6 -11 29 -38 43 -33 7 2 12 8 12
13 0 6 -4 8 -9 5 -13 -8 -38 3 -38 17 0 7 -4 21 -8 32 -6 17 -4 17 14 -4 13
-14 21 -18 21 -10 0 11 3 11 11 -1 8 -12 9 -11 5 6 -4 13 1 27 14 39 11 10 20
28 19 39 0 21 0 21 -9 1 -4 -12 -15 -27 -24 -34 -14 -11 -16 -11 -16 3 0 10 4
15 9 12 5 -3 12 1 15 10 3 8 2 13 -2 10 -4 -2 -14 -1 -22 4 -7 4 -24 4 -38 -1
-22 -8 -23 -8 -12 6 7 8 21 15 32 15 15 0 18 5 13 20 -5 15 -3 18 9 14 9 -3
16 -1 16 4 0 6 8 13 18 16 9 2 -1 2 -23 -1 -23 -3 -36 -2 -32 3 8 9 12 10 38
13 6 0 9 8 5 16 -4 10 1 15 14 15 11 0 20 -7 20 -15 0 -22 7 -19 38 16 25 28
31 30 48 20 13 -9 14 -11 2 -7 -9 2 -24 -2 -35 -10 -17 -15 -17 -15 1 -6 29
15 54 4 50 -21 -2 -12 -2 -16 2 -9 3 6 12 12 20 12 18 0 18 8 -2 27 -12 13
-13 18 -3 24 17 10 29 2 22 -16 -3 -8 -2 -15 1 -15 4 0 11 12 16 26 6 14 15
22 20 19 8 -5 7 -11 -1 -21 -9 -10 -9 -14 0 -14 6 0 15 -10 20 -22 l8 -22 5
22 c4 13 2 20 -6 19 -6 -1 -10 8 -9 21 2 13 -2 33 -9 45 -7 12 -11 25 -10 29
1 5 -4 7 -11 5 -6 -1 -11 4 -10 11 2 6 -4 12 -12 12 -27 0 -13 -32 19 -43 10
-4 17 -10 14 -13 -3 -2 -17 0 -31 5 -22 9 -25 8 -22 -9 2 -10 -2 -21 -10 -23
-9 -4 -11 1 -8 14 3 12 0 19 -8 19 -10 1 -9 4 3 11 19 11 13 43 -7 35 -13 -5
-30 22 -20 32 3 3 5 1 5 -4 0 -5 11 -10 25 -10 22 -2 24 1 18 24 -4 18 -3 23
6 18 6 -4 8 -12 5 -18 -4 -6 -1 -9 6 -6 15 5 23 58 9 58 -6 0 -7 -5 -3 -11 7
-12 -21 -6 -71 17 -16 7 -39 12 -50 11 -11 -1 -19 3 -18 9 1 7 -9 14 -23 17
l-25 4 21 -19 c22 -21 27 -40 8 -33 -19 8 -48 61 -34 63 6 1 26 4 45 6 18 2
36 8 40 14 3 5 28 12 55 15 27 4 55 12 62 18 8 6 23 9 34 6 11 -3 18 -1 14 4
-3 5 8 9 24 9 17 0 32 6 35 13 5 14 86 15 107 2 6 -3 10 -2 10 3 0 5 7 9 15 9
8 0 15 -4 15 -9 0 -5 7 -2 16 6 17 17 39 22 30 7 -7 -10 20 -9 30 1 3 4 12 4
20 1 8 -3 14 0 14 7 0 6 4 8 10 5 5 -3 19 -1 31 6 17 9 20 8 14 -2 -5 -8 -4
-10 4 -5 19 12 71 16 71 6 0 -5 9 -6 22 -1 25 9 56 2 103 -23 28 -15 30 -15
41 7 15 28 80 65 125 72 19 2 68 7 109 10 41 3 109 8 150 12 116 10 303 9 322
-2 29 -17 5 -34 -72 -49 -65 -13 -126 -21 -310 -41 -19 -2 -35 -4 -35 -5 0 0
-22 -2 -50 -4 -83 -6 -190 -18 -197 -23 -5 -2 -8 -9 -8 -16 0 -8 3 -8 11 0 5
5 21 8 35 5 19 -3 22 -7 12 -13 -11 -7 -11 -9 0 -9 7 0 20 7 28 15 18 18 61
19 101 4 15 -5 24 -7 20 -2 -10 10 90 30 122 24 23 -4 23 -5 6 -17 -10 -8 -14
-14 -8 -14 5 0 20 9 33 20 28 24 34 25 26 4 -5 -12 -2 -15 12 -12 18 5 45 -15
35 -26 -10 -10 -25 -7 -18 4 3 6 -2 10 -11 10 -10 0 -14 -3 -11 -7 4 -3 -1
-15 -10 -26 -17 -19 -17 -20 4 -15 15 4 20 2 17 -7 -10 -26 57 -42 85 -21 11
8 13 8 8 -1 -5 -8 0 -11 13 -10 12 1 20 8 20 19 0 15 4 15 30 7 26 -10 28 -13
15 -26 -20 -20 -19 -26 4 -20 10 2 26 0 35 -5 10 -6 16 -5 16 2 0 6 10 0 23
-14 20 -23 23 -24 37 -9 13 15 13 16 -1 11 -9 -3 -22 -2 -30 3 -10 6 -5 9 17
9 37 0 48 -9 32 -27 -15 -18 -2 -29 17 -13 10 8 15 9 15 2 0 -6 7 -9 15 -6 12
5 13 9 4 20 -7 8 -9 17 -5 21 3 3 6 1 6 -6 0 -7 5 -9 10 -6 6 3 10 -2 10 -12
1 -17 1 -17 10 -1 11 19 67 18 63 -1 -4 -14 14 -14 22 -1 4 6 11 8 16 5 16
-11 10 7 -8 22 -16 13 -16 13 3 4 12 -6 24 -7 28 -4 3 3 6 2 6 -4 0 -6 26 -11
63 -11 161 -1 257 -16 257 -42 0 -5 7 -10 16 -10 10 0 14 6 10 15 -3 8 -1 15
3 15 13 0 18 -20 13 -46 -3 -19 -11 -23 -42 -22 -21 0 -44 -3 -52 -8 -7 -5
-26 -7 -42 -5 -15 1 -26 -1 -23 -6 3 -5 -9 -7 -27 -5 -21 2 -39 -2 -49 -13
-10 -9 -17 -11 -17 -5 0 13 -73 2 -78 -11 -2 -5 -8 -9 -13 -9 -6 0 -7 5 -4 10
10 16 -11 12 -25 -5 -7 -8 -20 -15 -29 -15 -12 0 -13 2 -3 8 15 10 -55 7 -80
-3 -9 -4 -22 -3 -29 1 -8 5 -9 3 -4 -6 4 -7 2 -16 -6 -21 -11 -7 -11 -9 3 -9
9 0 19 -4 22 -8 3 -5 -8 -6 -25 -4 -23 3 -28 8 -24 23 5 15 1 17 -22 15 -15
-1 -27 -8 -26 -14 2 -7 -2 -12 -7 -12 -6 0 -10 5 -10 10 0 6 -5 10 -11 10 -5
0 -8 -4 -4 -9 3 -5 1 -12 -5 -16 -6 -3 -13 1 -16 9 -3 9 -14 16 -23 16 -14 0
-14 -2 -1 -11 11 -8 12 -12 3 -16 -8 -3 -11 -15 -8 -31 3 -15 2 -20 -2 -12 -3
8 -12 21 -20 28 -11 11 -14 11 -19 -3 -4 -9 -13 -14 -20 -11 -8 3 -14 1 -14
-4 0 -6 5 -10 10 -10 6 0 10 -4 10 -10 0 -5 -7 -10 -15 -10 -8 0 -15 5 -15 10
0 6 -4 10 -10 10 -15 0 -12 -16 5 -34 33 -33 -17 -60 -59 -30 -22 15 -10 20
14 4 9 -6 17 -5 22 3 11 18 10 29 -4 21 -7 -4 -8 -3 -4 4 4 7 4 13 -1 13 -39
6 -53 5 -53 -7 0 -7 -5 -16 -11 -20 -8 -4 -9 1 -4 17 4 17 3 20 -3 10 -5 -7
-15 -11 -21 -7 -7 4 -9 1 -5 -8 4 -11 0 -14 -15 -11 -12 2 -19 0 -16 -6 4 -5
-2 -9 -11 -9 -10 0 -14 3 -11 7 4 3 -2 13 -14 21 -11 8 -23 11 -27 7 -4 -4 -1
-10 6 -12 6 -3 12 -9 12 -15 0 -7 -4 -7 -12 -1 -7 6 -21 9 -30 8 -10 -2 -18 1
-18 7 0 7 -5 7 -13 -1 -8 -6 -17 -8 -20 -4 -4 3 -7 -2 -7 -12 0 -18 0 -18 -13
0 -10 12 -16 14 -21 7 -4 -7 -12 -12 -18 -12 -7 0 -7 4 1 13 12 16 -5 19 -53
10 -21 -4 -25 -7 -15 -14 11 -7 11 -9 1 -9 -7 0 -15 7 -18 15 -4 10 -14 13
-32 8 -17 -4 -23 -2 -18 6 4 6 3 11 -3 11 -17 0 -24 -22 -10 -31 10 -6 6 -8
-13 -7 -20 2 -24 6 -17 14 13 16 -7 29 -24 16 -15 -12 -48 -7 -57 9 -5 8 -10
5 -14 -9 -4 -11 -14 -26 -23 -34 -12 -9 -15 -9 -9 0 4 7 1 12 -9 12 -9 0 -13
-4 -10 -10 11 -17 0 -11 -19 12 -15 17 -15 20 -3 15 9 -3 19 -2 22 3 4 6 -3
10 -15 10 -12 0 -28 7 -36 15 -13 13 -42 14 -104 5 -3 0 2 -5 10 -10 11 -7 6
-8 -18 -5 -42 5 -62 -3 -55 -21 3 -8 0 -14 -6 -14 -6 0 -11 5 -11 10 0 6 -4
10 -10 10 -5 0 -10 -7 -10 -15 0 -8 -8 -15 -17 -15 -13 0 -15 2 -5 8 7 5 10
16 7 24 -5 12 -13 14 -33 9 -37 -10 -62 -3 -62 17 -1 16 -2 16 -14 0 -16 -22
-30 -24 -23 -4 4 11 1 13 -10 9 -11 -4 -14 -2 -9 5 4 7 1 12 -8 12 -9 0 -16
-4 -16 -10 0 -5 -7 -10 -15 -10 -9 0 -15 -9 -15 -22 0 -21 -15 -17 -15 5 0 7
-8 11 -18 11 -13 -1 -15 4 -10 24 4 17 2 23 -6 18 -6 -4 -11 -17 -11 -29 0
-17 -3 -19 -9 -8 -7 11 -13 11 -32 -3 -25 -17 -26 -19 -28 -62 -1 -22 -3 -25
-16 -14 -12 10 -15 10 -15 -4 0 -9 6 -16 13 -16 14 0 57 -52 57 -70 0 -5 6
-10 14 -10 9 0 12 -10 10 -30 -2 -16 2 -42 8 -57 6 -16 12 -35 13 -45 1 -9 6
-25 10 -35 4 -10 9 -30 9 -44 1 -21 -2 -25 -18 -21 -12 3 -17 1 -12 -6 8 -13
-20 -20 -76 -20 -21 0 -38 5 -38 10 0 5 -7 2 -16 -7 -12 -12 -19 -13 -30 -4
-11 9 -14 8 -15 -7 0 -11 -3 -13 -6 -7 -3 10 -10 10 -24 2 -15 -7 -24 -7 -34
1 -9 8 -15 8 -20 0 -4 -7 -12 -7 -26 0 -15 9 -19 7 -19 -7 0 -15 -2 -16 -10
-3 -5 8 -10 10 -10 4 0 -14 -32 -13 -42 0 -4 6 -12 5 -20 -2 -8 -6 -23 -11
-33 -11 -17 0 -49 -5 -65 -11 -3 -1 -8 -2 -12 -1 -5 0 -8 -4 -8 -11 0 -9 -3
-9 -12 0 -14 14 -32 16 -24 3 5 -8 -39 -7 -118 3 -22 2 -34 1 -27 -3 10 -6 9
-10 -4 -15 -24 -9 -37 -7 -30 4 3 6 2 10 -4 10 -5 0 -14 -7 -19 -17 -6 -11
-16 -14 -28 -9 -21 8 -30 5 -26 -6 1 -5 -2 -8 -7 -8 -5 0 -11 6 -14 13 -3 9
-7 9 -18 0 -8 -7 -26 -9 -39 -6 -18 5 -21 3 -15 -8 8 -12 6 -12 -8 0 -11 9
-17 10 -17 2 0 -8 -6 -7 -20 1 -17 11 -22 10 -30 -2 -9 -13 -11 -13 -20 0 -8
13 -10 12 -11 -5 0 -19 -1 -19 -8 -1 -5 14 -10 16 -15 8 -4 -7 -18 -12 -32
-12 l-24 0 0 -3105 0 -3105 746 0 c648 0 787 3 722 14 -7 1 -23 8 -36 15 l-23
12 20 18 c19 16 19 20 6 31 -8 7 -15 18 -15 25 0 8 -12 18 -27 23 -16 6 -23
11 -16 11 6 1 9 10 6 22 -5 17 -2 20 19 18 14 -2 33 5 48 19 l24 22 -31 0
c-37 0 -60 22 -40 38 7 6 23 8 36 5 21 -5 22 -4 11 17 -6 12 -10 31 -7 41 3
10 0 22 -5 26 -7 4 -8 1 -3 -7 6 -10 4 -12 -9 -7 -10 4 -20 7 -22 7 -2 0 -4 7
-4 15 0 8 -7 15 -15 15 -22 0 -18 33 6 48 18 12 20 20 15 55 -6 38 -14 106
-16 132 -1 20 25 105 32 105 5 0 8 22 8 48 0 26 7 75 15 107 13 47 13 64 4 82
-6 12 -9 33 -5 48 5 21 11 25 29 20 14 -4 17 -3 10 2 -22 15 -22 69 -2 81 16
10 23 6 46 -23 31 -39 42 -43 42 -17 1 9 1 24 2 32 0 8 -2 30 -6 48 -4 18 -3
32 2 32 5 0 10 14 11 32 2 17 7 37 13 44 6 7 8 18 5 23 -4 5 -2 12 3 15 5 4
12 2 16 -4 3 -5 15 -10 25 -10 18 0 18 2 -2 40 -12 22 -30 42 -40 46 -18 5
-23 16 -12 26 3 4 14 -2 25 -13 10 -10 24 -17 31 -15 7 1 10 1 6 -1 -14 -8 -8
-23 8 -23 8 0 29 -14 46 -30 17 -17 32 -29 35 -26 7 6 -28 59 -50 75 -12 8
-17 21 -13 35 4 15 -8 35 -44 75 -28 30 -50 64 -50 75 1 19 3 18 25 -9 22 -27
24 -28 18 -6 -6 22 -4 23 20 17 35 -9 34 2 -6 44 -18 19 -38 47 -45 63 -11 25
-10 27 12 27 34 0 40 48 10 85 -27 34 -22 70 7 54 11 -5 17 -14 14 -20 -4 -5
-1 -9 4 -9 14 0 14 27 1 35 -6 3 -7 17 -4 31 5 18 2 24 -9 24 -24 0 -31 19
-13 38 17 19 13 53 -11 87 -7 11 -13 30 -13 42 0 13 -4 23 -10 23 -5 0 -10 5
-10 10 0 6 8 10 19 10 25 0 44 25 46 61 1 28 -5 33 -32 30 -21 -3 -15 17 6 24
11 3 22 11 24 18 2 7 3 4 2 -5 -2 -10 2 -21 7 -25 8 -4 9 8 4 38 -4 24 -11 46
-16 47 -23 8 -8 39 24 52 20 7 32 18 29 26 -2 6 0 15 6 19 16 9 13 35 -4 35
-22 0 -18 15 10 46 21 22 27 25 40 14 8 -7 15 -19 15 -26 0 -8 4 -14 10 -14 5
0 7 7 4 15 -4 8 -1 22 5 29 10 11 8 16 -9 21 -19 6 -20 20 -2 20 4 0 12 3 17
7 6 3 30 7 55 9 25 2 48 8 52 13 13 19 20 -2 8 -24 -9 -16 -15 -19 -23 -11
-19 19 -28 12 -10 -8 9 -11 20 -18 25 -15 4 3 8 0 8 -5 0 -6 -5 -11 -11 -11
-18 0 -4 -23 16 -26 23 -3 36 -24 26 -43 -9 -15 5 -82 19 -91 10 -6 53 -111
69 -170 7 -25 22 -66 34 -92 11 -27 18 -50 15 -53 -3 -3 -25 13 -49 35 -24 23
-36 38 -26 34 24 -9 22 13 -3 28 -11 7 -20 21 -20 30 0 10 -7 18 -15 18 -8 0
-15 -4 -15 -10 0 -5 -6 -10 -14 -10 -7 0 -16 -9 -19 -20 -3 -11 -1 -20 4 -20
5 0 9 -9 9 -21 0 -12 8 -23 20 -26 17 -4 17 -7 5 -19 -11 -11 -12 -20 -3 -38
10 -24 48 -43 48 -25 0 5 7 9 15 9 8 0 15 6 15 13 0 8 4 7 10 -3 8 -11 12 -12
18 -3 11 18 77 -16 77 -40 0 -10 5 -21 10 -25 16 -11 82 -115 91 -142 4 -14 7
-75 5 -137 -2 -69 2 -127 9 -149 10 -29 10 -38 -1 -45 -7 -4 -18 -4 -25 2 -12
10 -33 -9 -53 -48 -19 -36 -13 -124 10 -162 20 -33 20 -33 0 -55 -55 -59 -52
-165 10 -293 62 -129 180 -233 266 -233 36 0 90 38 105 75 22 51 15 171 -15
245 -21 53 -26 60 -26 36 l-1 -29 -23 21 c-21 20 -51 82 -39 82 3 0 14 -7 24
-17 36 -32 17 7 -27 57 -51 57 -54 71 -22 93 12 8 19 18 15 22 -4 4 -15 2 -23
-5 -13 -11 -21 -10 -45 8 -31 23 -65 29 -75 12 -11 -18 -53 -11 -81 13 -23 20
-26 28 -20 59 3 19 16 44 27 54 21 19 22 19 36 -3 11 -16 25 -23 48 -23 38 0
49 11 66 67 14 51 37 56 74 19 28 -28 26 -67 -6 -123 -18 -32 -18 -33 1 -43
16 -8 20 -8 20 4 0 8 7 22 16 30 18 19 29 75 20 110 -8 32 -53 85 -83 97 -19
7 -23 16 -23 54 0 25 4 45 9 45 15 0 32 -28 29 -47 -2 -11 3 -17 12 -16 8 1
33 -21 55 -49 90 -114 191 -188 258 -188 16 0 41 7 56 16 25 15 38 15 146 1
94 -12 123 -20 135 -35 30 -36 59 -43 210 -48 165 -6 220 1 313 43 67 30 87
59 87 127 l0 44 123 60 c126 63 238 135 298 194 160 156 288 321 295 379 2 18
10 69 18 113 19 106 28 244 16 251 -10 6 -80 -33 -80 -46 0 -5 7 -12 15 -15
19 -8 20 -34 0 -34 -8 0 -17 -11 -21 -25 -3 -14 -12 -25 -19 -25 -8 0 -10 -9
-7 -25 4 -23 1 -25 -29 -25 -53 0 -73 -9 -86 -37 -11 -23 -10 -29 6 -44 16
-15 17 -25 9 -76 -20 -131 -99 -363 -123 -363 -8 0 -21 -10 -29 -22 -25 -35
-28 -15 -6 36 34 75 78 233 86 303 6 55 10 66 30 73 49 19 18 66 -34 51 -17
-5 -33 -7 -36 -4 -3 3 -8 -2 -12 -11 -7 -19 -30 -21 -37 -3 -3 7 -6 5 -6 -5
-1 -11 -9 -18 -21 -18 -11 0 -20 -7 -20 -15 0 -8 -8 -15 -17 -15 -29 -1 -113
-59 -123 -85 -7 -19 -17 -25 -38 -25 -15 0 -32 -4 -38 -8 -5 -5 -37 -19 -72
-32 -34 -12 -67 -30 -71 -39 -5 -9 -13 -13 -17 -9 -6 7 -55 -14 -104 -44 -100
-60 -148 -67 -312 -46 -90 11 -99 10 -117 -6 -19 -17 -29 -17 -156 -5 -142 13
-140 12 -221 82 -17 15 -39 27 -48 27 -9 0 -16 5 -16 11 0 5 -4 8 -8 5 -5 -3
-17 9 -27 26 -27 47 -52 68 -81 68 -14 0 -23 4 -20 8 3 5 -5 20 -17 32 -12 13
-22 33 -22 45 -2 30 -13 45 -36 45 -35 0 -35 -31 0 -60 25 -21 31 -34 29 -56
-3 -25 1 -30 30 -39 34 -10 41 -25 19 -44 -17 -13 -27 -5 -27 23 0 15 -3 17
-12 8 -17 -17 -28 -15 -28 4 0 11 -6 13 -19 9 -21 -6 -47 27 -36 44 3 5 -4 12
-15 16 -11 3 -20 10 -20 15 0 5 -25 9 -56 9 -61 -1 -72 4 -55 25 9 10 9 20 0
40 -7 14 -16 26 -21 26 -4 0 -8 9 -8 20 0 11 -11 37 -24 58 -12 20 -23 40 -22
43 1 4 -6 15 -15 25 -9 11 -16 27 -16 37 0 14 10 17 54 17 45 0 58 -4 78 -26
17 -18 31 -25 45 -21 21 5 28 -8 8 -16 -10 -3 -10 -7 1 -20 17 -22 41 -5 34
23 -4 13 4 23 26 34 16 9 32 16 35 16 2 0 24 -18 47 -40 24 -22 47 -40 53 -40
5 0 23 -11 40 -23 49 -37 151 -67 228 -67 69 0 95 10 143 53 10 9 24 16 30 14
5 -2 30 5 55 15 25 11 69 21 97 21 57 2 61 7 77 87 3 14 3 0 0 -30 l-5 -56 49
-21 c78 -34 114 -38 136 -14 11 12 25 21 33 21 7 0 13 4 13 9 0 5 9 11 20 14
17 4 20 13 20 64 0 82 -8 103 -36 103 -18 0 -22 -4 -17 -17 3 -11 -5 -6 -21
11 -28 31 -33 46 -14 46 15 0 1 13 -17 16 -14 2 -20 -9 -16 -30 1 -5 -7 -6
-19 -3 -11 3 -18 1 -14 -4 3 -5 0 -9 -5 -9 -15 0 -14 13 2 29 10 10 8 15 -7
26 -10 8 -22 12 -26 10 -4 -3 -14 3 -21 13 -13 15 -12 16 4 3 22 -17 23 2 0
24 -10 10 -16 32 -16 58 1 23 -6 52 -13 65 -11 16 -12 27 -4 41 11 21 4 51
-11 51 -6 0 -5 -9 1 -20 8 -16 8 -20 -4 -20 -19 0 -29 17 -20 32 12 19 14 57
3 63 -11 7 -12 56 -1 53 4 -2 17 4 30 13 21 15 21 18 7 32 -19 20 -19 27 1 27
8 0 13 4 10 8 -2 4 4 13 15 20 16 10 19 9 19 -4 0 -8 -5 -12 -11 -8 -8 5 -8 1
0 -14 15 -28 14 -32 -6 -25 -16 6 -16 5 -4 -10 15 -18 31 -14 31 9 0 8 5 14
12 14 9 0 9 3 0 12 -17 17 -15 53 4 69 9 8 32 46 50 86 20 45 39 73 48 73 9 0
16 5 16 11 0 5 -6 7 -12 3 -7 -4 -5 2 5 13 9 11 14 23 10 26 -3 4 -1 7 6 7 7
0 9 5 6 10 -3 6 -1 10 4 10 6 0 11 11 11 25 0 14 -5 25 -11 25 -8 0 -8 5 1 15
10 12 9 16 -3 21 -9 3 -13 12 -11 19 4 9 0 12 -14 8 -15 -3 -21 2 -27 24 -5
15 -8 31 -7 35 1 4 -7 10 -18 13 -11 4 -17 12 -13 21 3 7 0 14 -7 14 -7 0 -10
8 -7 19 3 13 -1 21 -15 24 -11 3 -17 10 -13 16 3 6 2 11 -4 11 -13 0 -101 81
-101 93 0 6 -11 25 -25 43 -14 18 -25 37 -25 43 0 6 -7 11 -15 11 -8 0 -15 5
-15 10 0 6 5 10 12 10 6 0 8 3 4 7 -4 4 -27 8 -53 9 -37 2 -46 -1 -50 -17 -4
-15 -9 -17 -18 -9 -11 9 -12 6 -8 -12 3 -17 2 -19 -5 -9 -8 11 -10 11 -15 0
-4 -11 -6 -10 -6 2 -1 15 -41 60 -41 45 0 -14 -38 30 -44 52 -4 12 -12 22 -17
22 -5 0 -9 7 -9 15 0 8 -7 15 -16 15 -14 0 -14 -3 -4 -15 11 -13 8 -15 -15
-15 -20 0 -26 -4 -21 -15 3 -8 1 -15 -3 -15 -5 0 -12 7 -15 16 -5 13 -9 14
-21 4 -13 -10 -13 -14 1 -27 20 -20 11 -28 -15 -13 -14 7 -21 7 -21 0 0 -5 5
-10 10 -10 6 0 10 -4 10 -10 0 -5 -6 -10 -14 -10 -8 0 -18 -9 -21 -21 -4 -11
-9 -18 -12 -16 -2 3 -15 -6 -28 -19 -13 -13 -31 -24 -40 -24 -8 0 -15 -5 -15
-11 0 -6 -6 -9 -12 -6 -7 2 -13 10 -13 17 0 19 -61 34 -83 20 -14 -9 -12 -10
11 -7 18 3 30 0 34 -9 3 -8 8 -12 12 -10 4 3 7 -8 6 -22 0 -34 -44 -99 -55
-82 -6 9 -9 9 -15 0 -4 -6 -13 -9 -21 -6 -8 3 -15 0 -15 -7 -1 -7 -2 -16 -4
-22 -1 -5 -3 -13 -3 -17 -1 -4 -13 4 -27 17 -13 14 -30 25 -37 25 -8 -1 -5 -7
7 -16 25 -19 25 -18 -5 -43 -17 -14 -20 -20 -10 -21 13 0 13 -1 0 -10 -13 -9
-13 -11 0 -20 13 -9 13 -10 0 -10 -12 0 -12 -2 -1 -9 10 -6 10 -10 1 -16 -9
-6 -9 -9 -1 -15 7 -4 13 -17 14 -28 1 -12 5 -22 9 -22 6 0 32 -76 30 -87 -1
-2 3 -16 8 -33 6 -20 5 -32 -3 -37 -7 -5 -21 -18 -31 -30 l-19 -23 41 4 c44 4
62 -8 43 -27 -9 -9 -11 -7 -6 8 5 18 4 18 -11 -2 -19 -26 -49 -32 -40 -8 3 9
0 15 -9 15 -17 0 -20 -25 -5 -35 5 -3 7 -12 3 -20 -3 -9 1 -15 8 -15 8 0 -1
-9 -19 -20 -28 -17 -37 -19 -50 -8 -12 9 -11 5 2 -10 11 -12 22 -19 25 -14 3
5 26 22 51 37 25 16 39 21 32 13 -11 -14 -9 -20 10 -39 13 -12 19 -20 13 -18
-5 3 -23 -9 -40 -25 -23 -23 -25 -28 -10 -23 18 7 19 6 3 -6 -10 -8 -15 -17
-11 -20 3 -4 0 -13 -7 -22 -15 -18 0 -21 18 -3 6 6 15 9 18 5 4 -4 -4 -15 -17
-26 -17 -13 -29 -16 -41 -10 -10 6 -19 5 -23 -1 -3 -5 2 -10 11 -10 14 0 12
-6 -12 -32 -28 -30 -26 -31 23 -11 11 4 14 3 9 -5 -4 -7 -11 -12 -16 -12 -5 0
-21 -12 -36 -26 -14 -15 -19 -24 -11 -21 23 9 10 -27 -21 -55 -21 -19 -24 -20
-18 -4 5 15 2 17 -14 13 -27 -7 -25 1 3 13 20 8 21 9 2 10 -19 1 -18 2 3 10
12 5 22 14 22 20 0 14 -29 -1 -53 -28 -15 -16 -16 -25 -8 -41 15 -26 14 -34
-3 -28 -7 3 -19 0 -26 -6 -10 -10 -10 -7 -1 10 8 15 8 23 1 23 -15 0 -12 30 3
30 6 0 4 5 -6 11 -23 13 -44 -2 -31 -23 5 -7 9 -29 10 -48 l1 -35 -11 28 c-7
20 -16 27 -28 24 -15 -4 -17 -1 -12 21 3 15 15 45 25 68 20 42 24 66 11 61 -4
-1 -15 5 -24 13 -11 11 -13 21 -7 37 6 16 5 22 -4 20 -7 -1 -11 6 -9 16 2 9
-3 20 -11 23 -20 7 -8 68 17 87 6 5 0 5 -13 2 -17 -5 -21 -4 -16 5 4 6 8 31 9
53 3 63 13 78 42 67 13 -5 25 -6 25 -2 2 12 6 27 8 32 2 3 4 22 5 42 1 20 5
40 9 44 15 15 6 24 -13 12 -22 -14 -33 -8 -24 16 5 12 15 15 48 10 27 -4 36
-2 28 4 -19 13 -17 23 10 36 14 8 22 19 20 32 -5 32 2 107 12 122 3 6 -3 12
-14 15 -11 3 -20 11 -19 19 0 10 2 10 6 1 2 -7 12 -13 20 -13 9 0 13 6 9 15
-3 9 0 15 9 15 8 0 15 9 15 20 0 11 -5 20 -12 20 -6 0 -3 6 7 14 11 8 23 12
27 10 5 -3 8 -1 8 5 0 5 -8 14 -17 19 -15 9 -15 11 -1 25 9 9 18 14 21 11 3
-4 11 -3 17 1 8 5 8 10 0 20 -9 11 -8 19 2 33 12 18 17 21 36 23 4 0 -2 4 -12
8 -18 7 -16 11 21 50 26 28 39 49 36 61 -3 10 0 21 6 24 6 4 11 0 11 -9 0 -9
5 -13 10 -10 6 4 8 10 5 15 -6 10 22 71 38 81 5 4 9 19 10 33 0 16 8 33 21 42
23 16 24 22 4 36 -9 6 -6 7 10 3 16 -5 22 -2 22 9 0 9 -4 16 -9 16 -5 0 -17 7
-26 16 -14 14 -14 19 -2 33 30 35 29 41 -5 40 -18 0 -27 -3 -20 -6 17 -7 15
-23 -3 -23 -8 0 -15 -7 -15 -15 0 -7 -8 -18 -17 -23 -16 -9 -16 -11 0 -27 24
-24 12 -36 -31 -31 l-37 5 25 -19 c21 -16 22 -20 10 -35 -9 -10 -16 -12 -20
-5 -4 6 -12 -1 -19 -16 -12 -28 -8 -29 42 -9 9 4 17 3 17 -3 0 -5 -10 -13 -22
-17 -13 -3 -18 -9 -12 -11 14 -6 6 -44 -8 -44 -5 0 -6 5 -2 12 4 6 3 8 -4 5
-5 -4 -8 -15 -5 -25 2 -10 -3 -24 -11 -31 -9 -8 -16 -19 -16 -26 0 -7 -11 -20
-25 -29 -14 -9 -25 -12 -25 -6 0 5 4 10 8 10 8 0 32 43 32 57 0 3 -21 -17 -46
-43 -26 -27 -44 -41 -40 -31 6 18 -2 21 -27 11 -8 -3 -13 -13 -10 -23 3 -12
-2 -20 -16 -24 -12 -3 -21 -9 -20 -14 3 -18 -2 -33 -11 -33 -5 0 -7 7 -4 15 4
8 2 15 -4 15 -12 0 -24 -44 -16 -63 3 -8 -2 -17 -10 -20 -9 -4 -16 -11 -16
-17 0 -6 5 -8 11 -4 8 4 9 0 4 -15 -3 -11 -8 -33 -10 -49 -2 -15 -4 -27 -5
-27 -1 0 -4 -11 -6 -25 -2 -14 -6 -34 -8 -45 -2 -11 -4 -23 -5 -27 -2 -13 -31
-9 -31 4 0 8 -7 6 -17 -5 -15 -15 -16 -19 -4 -27 12 -7 12 -11 2 -24 -8 -9
-18 -16 -23 -16 -6 0 -5 7 3 16 10 13 10 17 0 24 -8 4 -10 13 -7 19 4 6 2 19
-3 28 -7 12 -11 13 -11 5 0 -23 -21 -8 -36 26 -8 19 -9 32 -3 32 6 0 7 6 2 13
-11 17 -13 68 -2 61 5 -3 9 0 9 6 0 7 -7 10 -15 7 -21 -9 -30 11 -31 73 -2 77
-3 80 -15 80 -5 0 -7 -4 -4 -10 3 -5 1 -10 -4 -10 -6 0 -11 8 -11 18 0 10 -4
22 -9 27 -5 6 -11 27 -14 49 -6 45 -17 59 -37 46 -10 -7 -11 -10 -2 -10 6 0
12 -5 12 -11 0 -6 -6 -9 -12 -6 -7 2 -24 0 -37 -5 -20 -7 -23 -6 -18 11 3 11
-4 26 -16 37 -14 11 -17 19 -9 22 7 2 1 13 -16 27 -24 22 -25 24 -7 25 15 0
11 6 -18 22 -30 18 -37 27 -35 49 1 15 -4 35 -12 44 -11 13 -11 18 -1 24 10 6
9 10 -4 15 -9 3 -15 12 -12 19 2 6 -2 31 -8 55 -9 29 -10 42 -2 42 6 0 3 6 -7
13 -15 11 -16 18 -9 32 6 11 7 30 3 47 -6 19 -5 28 3 28 6 0 -3 14 -21 30 -18
17 -28 30 -23 30 6 0 11 9 11 20 0 11 5 20 10 20 16 0 11 19 -11 41 -18 18
-19 22 -6 37 10 11 15 35 13 70 -1 28 2 52 6 52 4 0 5 14 2 30 -4 19 -2 30 5
30 6 0 11 9 11 20 0 11 11 27 25 36 32 21 32 30 -2 42 l-28 9 30 16 c29 16 29
17 8 23 -13 3 -23 10 -23 15 0 5 6 6 14 3 18 -7 52 26 36 36 -7 4 -12 18 -11
31 0 13 1 50 2 82 1 31 4 59 9 62 4 2 6 17 4 32 -4 28 12 72 31 85 5 4 -1 11
-14 16 l-24 9 38 41 c39 43 37 48 -17 44 -30 -3 -20 27 15 48 36 21 40 25 80
69 16 17 26 35 22 41 -3 6 1 13 9 16 9 3 16 15 16 25 0 12 7 19 20 19 22 0 27
15 7 23 -18 7 -67 -3 -67 -14 0 -5 -7 -6 -16 -2 -14 5 -16 2 -10 -20 4 -19 2
-26 -11 -29 -21 -4 -63 34 -45 40 7 2 12 15 12 29 0 18 4 24 15 19 18 -7 19
-2 3 27 -15 29 -19 138 -6 155 9 10 15 9 31 -5 19 -17 20 -17 36 7 9 14 28 38
43 53 32 32 35 58 12 81 -19 19 -26 20 -42 4 -10 -10 -14 -10 -21 0 -10 16
-35 -11 -45 -48 -3 -14 -23 -44 -44 -67 -36 -41 -63 -52 -102 -42 -10 3 -14
-3 -13 -18 4 -31 -15 -29 -23 2 -7 27 -34 35 -34 11 0 -8 -10 -22 -21 -30 -26
-18 -31 -82 -9 -96 11 -7 12 -12 3 -21 -19 -19 -39 -4 -58 48 -10 26 -29 61
-42 76 -12 16 -23 34 -23 41 0 7 23 18 52 26 57 14 75 27 80 56 2 15 -3 18
-27 17 -56 -4 -105 91 -57 112 43 19 21 23 -28 5 -27 -10 -50 -16 -50 -14 0 2
-9 -5 -20 -16 -23 -23 -36 -25 -54 -7 -15 15 -10 37 10 37 16 0 54 35 54 50 0
23 -42 7 -82 -30 -24 -22 -46 -40 -49 -40 -10 0 -59 -48 -59 -57 0 -5 -29 -33
-65 -63 -35 -30 -65 -63 -65 -72 0 -9 -13 -26 -30 -38 -16 -12 -30 -28 -30
-35 0 -16 -96 -116 -132 -139 -32 -19 -98 -10 -98 14 0 22 98 98 153 116 9 4
17 11 17 16 0 12 39 48 52 48 4 0 8 7 8 15 0 9 7 18 16 22 9 3 38 27 64 52 51
49 69 64 85 72 5 2 24 20 42 40 18 20 64 57 101 82 38 25 75 53 82 62 22 26
72 48 110 48 19 0 27 2 17 4 -10 3 -16 10 -14 16 4 12 61 48 113 72 17 8 34
21 38 30 4 12 14 14 41 9 24 -4 42 -1 59 9 13 9 32 16 42 16 77 -2 200 15 210
29 6 9 16 12 23 7 10 -6 11 -3 2 13 -16 29 -30 36 -37 17 -6 -14 -8 -12 -18 7
-18 36 -42 36 -118 -3 -10 -5 -29 -9 -43 -9 -15 0 -24 -4 -21 -9 3 -5 -10 -21
-28 -35 -21 -16 -37 -22 -41 -16 -4 6 -11 8 -16 4 -5 -3 -16 0 -24 6 -11 10
-15 10 -15 1 0 -7 -5 -9 -10 -6 -6 4 -7 12 -4 18 5 8 3 8 -7 0 -18 -18 -67
-16 -86 2 -18 18 -38 14 -37 -6 1 -8 -7 -15 -17 -15 -13 0 -15 4 -8 17 5 10 9
24 9 31 0 7 -8 -2 -16 -19 -21 -42 -38 -42 -32 -1 4 27 3 29 -8 14 -7 -10 -10
-25 -7 -34 4 -14 2 -14 -11 2 -8 10 -19 15 -25 11 -6 -3 -11 0 -11 7 0 9 -3 9
-10 -2 -7 -11 -4 -17 13 -22 21 -7 20 -7 -3 -5 -20 2 -24 7 -22 27 3 19 1 22
-8 13 -7 -6 -12 -23 -12 -37 0 -14 -4 -23 -9 -20 -5 3 -9 12 -9 20 0 15 -21
15 -32 -1 -5 -6 -8 -6 -8 2 0 7 7 16 16 21 14 8 13 10 -8 15 -20 5 -25 13 -24
35 1 16 6 29 13 29 6 0 9 -6 6 -13 -8 -22 8 -39 19 -20 5 9 13 14 19 11 5 -4
9 -1 9 4 0 6 -4 11 -10 11 -5 0 -10 5 -10 11 0 8 5 7 15 -1 10 -8 13 -21 9
-34 -7 -21 -6 -21 15 -2 16 15 18 21 9 28 -7 4 -8 8 -3 8 6 0 3 5 -5 10 -12 8
-12 10 -1 10 8 0 20 -8 28 -17 8 -10 12 -12 8 -5 -3 6 -2 12 2 12 5 0 15 -6
22 -12 9 -8 11 -8 8 -2 -9 16 25 28 35 12 4 -7 8 -9 8 -4 0 6 6 1 14 -10 11
-13 18 -16 26 -8 7 7 3 14 -15 24 -14 7 -25 18 -25 23 0 5 6 5 13 -2 10 -8 17
-7 26 2 10 9 11 8 5 -6 -6 -16 -3 -18 24 -14 17 3 30 1 29 -3 -1 -5 7 -16 18
-24 17 -14 18 -17 5 -26 -13 -8 -13 -10 2 -10 12 0 16 8 16 30 -1 22 -5 29
-15 26 -7 -3 -13 -1 -13 4 0 6 7 10 15 10 8 0 24 6 35 13 17 10 22 9 29 -2 5
-7 14 -10 20 -7 16 10 -16 39 -35 32 -9 -3 -12 -2 -9 5 4 5 17 9 30 7 13 -2
32 5 43 15 14 13 22 15 27 7 5 -8 10 -8 20 0 10 8 15 8 21 -1 4 -7 3 -9 -3 -6
-6 4 -16 0 -23 -8 -14 -17 -35 -21 -25 -5 3 6 2 10 -3 10 -5 0 -12 -9 -15 -19
-6 -24 17 -35 33 -15 14 16 37 19 42 5 5 -13 48 -24 48 -12 0 6 -9 11 -20 11
-22 0 -25 7 -10 30 8 13 10 12 10 -4 0 -12 5 -16 15 -12 9 3 18 -1 21 -9 9
-23 21 -18 20 8 -1 18 4 22 26 20 16 -1 29 4 32 14 5 11 2 14 -11 9 -14 -6
-15 -4 -6 5 14 14 34 3 26 -16 -3 -8 0 -15 6 -15 6 0 10 5 8 11 -1 6 4 14 12
17 8 2 11 0 8 -6 -10 -15 16 -31 46 -28 36 4 41 10 24 28 -12 12 -12 15 0 27
19 18 24 10 27 -38 2 -42 16 -70 16 -33 0 12 5 22 11 22 5 0 7 -4 4 -10 -3 -6
4 -10 17 -11 21 0 21 -1 4 -8 -14 -5 -16 -10 -7 -15 16 -10 41 12 34 30 -3 8
0 14 7 14 13 0 10 -42 -5 -52 -6 -4 -2 -8 8 -8 11 0 17 6 15 16 -2 11 5 18 20
20 20 3 22 0 20 -24 -2 -17 1 -26 9 -25 7 2 10 -4 7 -12 -12 -31 24 -14 37 18
7 17 18 35 23 39 16 11 36 10 36 -2 0 -5 -9 -10 -21 -10 -15 0 -19 -5 -15 -15
3 -8 1 -15 -4 -15 -6 0 -10 -5 -10 -11 0 -5 4 -8 9 -5 5 3 11 0 14 -8 3 -8 19
-17 36 -21 17 -4 38 -14 47 -22 12 -12 18 -13 23 -4 6 9 11 8 21 -4 7 -9 19
-14 26 -11 7 3 23 -7 36 -22 13 -15 40 -40 60 -55 23 -18 39 -40 44 -60 3 -18
13 -39 20 -47 8 -8 35 -37 60 -65 32 -35 47 -46 53 -37 4 8 14 14 22 16 8 1
23 7 34 13 28 15 83 4 99 -19 8 -11 26 -26 40 -33 23 -12 26 -12 26 2 0 13 5
12 25 -7 14 -13 25 -32 25 -42 0 -10 5 -18 10 -18 6 0 10 5 10 11 0 6 5 9 12
7 6 -2 22 6 36 19 13 12 28 20 32 18 5 -3 6 5 3 17 -4 22 -4 22 10 5 10 -12
17 -14 22 -7 3 5 11 8 16 4 5 -3 16 0 24 6 11 9 15 9 16 1 1 -6 2 -16 3 -23 0
-6 7 -13 15 -16 8 -3 11 0 7 6 -3 6 -2 14 4 17 6 4 9 1 8 -7 -2 -7 5 -12 15
-11 13 1 17 -4 13 -14 -5 -12 -1 -14 18 -9 29 7 39 -19 25 -67 -12 -41 -11
-50 1 -42 6 3 15 -4 20 -17 8 -17 9 -10 4 30 -5 44 -4 51 10 46 12 -5 14 0 9
30 -4 24 -2 36 6 36 6 0 11 -6 11 -14 0 -21 21 -31 31 -15 7 11 12 12 29 2 11
-7 26 -13 35 -13 8 0 22 -12 32 -26 16 -26 17 -26 25 -5 4 12 12 21 18 21 14
0 12 -37 -2 -43 -7 -2 -10 -8 -5 -12 4 -5 18 2 32 15 14 13 25 18 25 12 0 -7
7 -12 15 -12 8 0 15 -4 15 -9 0 -14 42 -4 51 11 9 15 49 20 49 6 0 -5 -7 -11
-15 -14 -22 -9 -19 -44 4 -44 15 0 18 7 16 38 -3 50 -2 49 -27 57 -21 6 -21 8
-4 12 19 5 135 -27 191 -52 17 -8 53 -19 80 -26 28 -7 74 -23 103 -36 73 -33
100 -24 119 39 10 36 21 50 45 62 33 17 58 21 58 9 0 -5 32 -8 71 -8 50 -1 73
-5 79 -15 7 -10 10 -11 10 -2 0 6 9 12 21 12 11 0 17 -4 14 -10 -6 -9 23 -8
98 4 15 2 27 1 27 -4 0 -4 9 -6 21 -3 15 4 22 0 26 -16 4 -16 9 -19 18 -11 7
6 20 7 30 4 10 -4 21 -1 26 7 6 11 11 11 21 1 6 -6 19 -12 28 -12 30 0 129
-60 136 -83 4 -12 46 -65 93 -117 48 -52 105 -120 127 -150 23 -30 73 -86 113
-125 46 -45 113 -131 187 -240 64 -93 129 -188 145 -210 16 -22 59 -85 96
-140 36 -55 77 -113 90 -129 26 -31 53 -89 53 -113 0 -11 -14 -4 -43 20 -24
19 -59 42 -79 50 -22 9 -43 28 -53 46 -8 17 -20 31 -26 31 -6 0 -9 7 -5 15 3
8 2 15 -2 15 -4 0 -13 15 -21 33 -8 17 -29 63 -48 101 -18 37 -33 72 -33 77 0
5 -16 33 -36 62 -20 28 -42 65 -49 82 -7 16 -24 43 -38 59 -24 30 -24 30 -36
8 -10 -19 -7 -26 23 -58 19 -20 42 -59 51 -86 14 -43 14 -51 1 -63 -9 -10 -17
-11 -21 -5 -4 6 -10 8 -15 5 -4 -3 -14 8 -22 25 -7 17 -18 28 -24 26 -18 -7
-80 68 -100 120 -17 44 -17 47 -1 59 9 7 17 17 17 24 0 6 5 11 10 11 6 0 10 7
10 16 0 11 -6 14 -20 9 -20 -6 -29 9 -10 18 6 3 5 4 -2 3 -7 -2 -22 1 -33 7
-18 9 -19 9 -6 -6 31 -38 -29 -8 -67 33 -15 16 -34 30 -42 31 -31 3 -51 -1
-45 -11 3 -5 13 -6 22 -3 10 4 14 2 9 -5 -3 -6 -1 -14 5 -18 8 -4 9 -3 5 4
-13 21 13 13 34 -10 12 -13 30 -32 40 -43 11 -12 20 -27 20 -35 0 -9 -5 -8
-15 6 -14 18 -15 16 -9 -19 6 -37 6 -38 -14 -26 -16 10 -28 10 -60 0 -40 -13
-41 -13 -76 21 -20 19 -36 40 -36 47 0 6 -7 11 -15 11 -8 0 -29 16 -46 35 -36
39 -69 46 -69 15 0 -13 7 -20 19 -20 25 0 86 -50 123 -102 36 -50 64 -79 93
-94 12 -6 19 -18 17 -30 -4 -18 -88 -104 -103 -104 -4 0 -8 25 -8 55 0 68 -5
79 -34 63 -29 -15 -80 -21 -72 -8 3 5 0 7 -9 4 -17 -7 -31 16 -40 67 -4 21
-13 51 -22 67 -10 21 -13 48 -10 82 4 43 1 54 -20 77 -13 14 -24 29 -24 33 0
15 66 17 101 3 21 -8 43 -13 50 -11 8 1 25 -5 40 -15 14 -9 41 -20 60 -23 l34
-6 -25 25 c-14 14 -37 28 -52 29 -15 2 -41 17 -57 32 -26 25 -30 26 -39 10 -9
-16 -11 -15 -22 7 -7 13 -20 34 -28 47 l-15 24 39 -8 c21 -4 51 -16 66 -27 28
-21 52 -17 30 5 -21 21 -13 30 18 23 23 -5 29 -3 24 7 -7 16 -128 76 -171 84
-18 4 -33 10 -33 15 0 5 -18 7 -40 5 -40 -3 -60 6 -40 19 6 4 8 11 5 16 -4 5
7 9 23 9 16 0 32 3 36 7 8 8 -168 31 -245 32 -40 1 -53 7 -103 51 -34 30 -67
50 -81 50 -13 0 -27 5 -30 10 -3 6 -9 10 -14 10 -13 0 -5 -44 17 -93 12 -27
22 -59 22 -71 0 -12 5 -27 11 -33 6 -6 11 -61 12 -129 l2 -118 35 -2 c26 -2
40 3 52 19 15 20 20 21 60 10 24 -6 55 -9 70 -6 37 7 59 -2 52 -22 -4 -9 -13
-14 -20 -11 -22 8 -24 -8 -4 -34 18 -24 19 -24 39 -6 19 17 20 17 50 -36 17
-29 31 -56 31 -60 0 -4 11 -18 25 -32 17 -17 23 -32 19 -49 -2 -14 0 -29 6
-32 6 -4 8 -10 5 -15 -3 -4 4 -6 15 -3 12 3 20 0 20 -7 0 -6 -9 -14 -21 -17
-16 -4 -17 -8 -7 -14 10 -6 10 -13 2 -26 -16 -27 -38 -30 -31 -4 3 11 2 21 -3
21 -4 0 -11 12 -14 26 -8 30 -20 22 -30 -17 -4 -20 -1 -29 10 -33 14 -5 14 -9
3 -23 -8 -9 -14 -25 -14 -36 0 -11 -5 -22 -12 -24 -8 -3 -11 6 -10 24 2 23 -2
29 -23 31 -14 2 -32 12 -40 23 -10 13 -22 18 -33 13 -15 -5 -15 -8 -4 -18 8
-6 20 -32 28 -58 7 -27 17 -48 21 -48 4 0 8 -5 8 -12 0 -6 12 -27 28 -47 46
-60 54 -81 35 -88 -12 -5 -28 6 -53 35 -39 46 -51 52 -43 22 3 -11 1 -20 -5
-20 -13 0 -8 -31 13 -72 8 -17 13 -40 9 -50 -3 -10 -1 -18 5 -18 10 0 9 -28
-3 -72 -5 -15 -3 -35 4 -48 9 -17 8 -26 -7 -48 -9 -15 -16 -31 -15 -35 1 -5
-2 -26 -8 -48 -6 -22 -13 -75 -15 -118 -6 -111 -24 -247 -37 -279 -6 -15 -13
-43 -15 -62 -2 -19 -11 -53 -19 -75 -29 -73 -42 -155 -25 -155 13 0 12 -132
-2 -170 -5 -14 -11 -112 -13 -219 -2 -106 -7 -198 -11 -204 -4 -6 -1 -7 6 -3
9 6 12 -9 13 -60 0 -38 0 -105 0 -149 1 -44 -2 -101 -7 -128 -6 -39 -5 -47 8
-47 10 0 13 -6 10 -20 -3 -11 -10 -20 -15 -20 -5 0 -6 -10 -3 -21 5 -13 2 -25
-6 -31 -10 -6 -10 -11 -3 -14 16 -7 4 -54 -13 -54 -12 0 -13 -3 -3 -15 9 -11
9 -22 -1 -50 -7 -19 -17 -35 -21 -35 -10 0 -11 -37 0 -43 8 -5 -1 -195 -13
-291 -11 -83 8 -66 40 35 14 45 31 90 37 102 7 12 11 26 10 31 -2 4 3 14 9 22
6 8 13 57 15 109 3 104 7 115 33 115 29 0 41 22 41 76 0 29 4 56 10 59 6 3 10
1 10 -4 0 -6 15 -28 33 -48 49 -57 93 -125 100 -154 4 -14 18 -42 31 -62 33
-49 136 -245 136 -260 0 -7 16 -54 35 -106 19 -52 34 -106 34 -120 -1 -14 6
-78 16 -141 15 -102 23 -126 67 -210 52 -97 69 -148 114 -330 33 -134 110
-384 126 -406 4 -6 12 -43 18 -82 5 -39 17 -90 26 -114 24 -63 54 -180 48
-189 -2 -4 0 -10 6 -14 5 -3 10 -23 10 -43 0 -20 9 -66 20 -102 11 -36 20 -92
20 -125 0 -33 7 -85 15 -115 8 -30 18 -83 21 -117 l7 -63 513 0 514 0 0 4000
0 4000 -2155 0 c-1915 0 -2156 -2 -2161 -15z m-1224 -859 c0 -2 -9 -6 -20 -9
-11 -3 -18 -1 -14 4 5 9 34 13 34 5z m-183 -81 c4 -4 3 -5 -4 -1 -6 3 -16 -2
-22 -11 -9 -16 -10 -16 -8 3 1 21 19 26 34 9z m81 -80 c-3 -3 -9 2 -12 12 -6
14 -5 15 5 6 7 -7 10 -15 7 -18z m92 0 c0 -10 -6 -11 -29 -2 -17 6 -28 14 -26
18 8 11 55 -3 55 -16z m-62 -45 c-7 -11 -20 -20 -28 -20 -10 0 -7 7 10 20 31
25 33 25 18 0z m2112 -5 c0 -8 -4 -15 -10 -15 -5 0 -10 7 -10 15 0 8 5 15 10
15 6 0 10 -7 10 -15z m-2070 -10 c8 5 11 3 8 -6 -3 -8 -11 -13 -17 -11 -9 2
-9 -3 -1 -17 8 -16 6 -22 -10 -31 -12 -6 -20 -7 -20 -1 0 5 5 11 12 13 7 3 8
10 4 17 -6 9 -11 10 -19 2 -23 -23 -27 -10 -5 19 14 19 24 26 29 19 4 -6 12
-8 19 -4z m-110 -15 c-8 -5 -17 -7 -19 -4 -3 3 1 9 9 14 8 5 17 7 19 4 3 -3
-1 -9 -9 -14z m10 -24 c0 -2 -7 -7 -16 -10 -8 -3 -12 -2 -9 4 6 10 25 14 25 6z
m31 -23 c10 -11 10 -14 2 -9 -8 4 -13 2 -13 -4 0 -7 -8 -9 -20 -5 -15 5 -18 3
-14 -9 3 -9 2 -16 -3 -16 -5 0 -9 9 -10 20 -1 14 4 20 18 20 10 0 19 5 19 10
0 14 6 12 21 -7z m1654 -23 c3 -5 2 -10 -4 -10 -5 0 -13 5 -16 10 -3 6 -2 10
4 10 5 0 13 -4 16 -10z m105 6 c0 -3 -4 -8 -10 -11 -5 -3 -10 -1 -10 4 0 6 5
11 10 11 6 0 10 -2 10 -4z m-1846 -45 c3 -5 -1 -11 -9 -14 -9 -4 -12 -1 -8 9
6 16 10 17 17 5z m-137 -50 c0 -11 -5 -18 -9 -15 -4 3 -5 11 -1 19 7 21 12 19
10 -4z m508 -29 c-3 -3 -11 0 -18 7 -9 10 -8 11 6 5 10 -3 15 -9 12 -12z
m-653 -28 c-9 -16 -10 -14 -9 8 1 15 6 23 11 18 4 -4 4 -16 -2 -26z m88 5 c0
-3 -6 -6 -14 -6 -8 0 -11 8 -8 20 4 14 7 16 13 5 5 -7 9 -16 9 -19z m1250 21
c0 -5 -8 -10 -17 -10 -15 0 -16 2 -3 10 19 12 20 12 20 0z m514 -15 c-4 -8
-13 -15 -20 -15 -12 0 -12 3 -2 15 17 19 29 19 22 0z m-394 -30 c0 -5 -5 -3
-10 5 -5 8 -10 20 -10 25 0 6 5 3 10 -5 5 -8 10 -19 10 -25z m150 21 c0 -24
-17 -28 -23 -6 -3 13 0 20 9 20 8 0 14 -6 14 -14z m-1430 0 c0 -3 -4 -8 -10
-11 -5 -3 -10 -1 -10 4 0 6 5 11 10 11 6 0 10 -2 10 -4z m1320 -22 c0 -14 -4
-22 -10 -19 -5 3 -18 1 -27 -5 -14 -8 -14 -10 -3 -9 28 3 50 -1 50 -8 0 -5
-15 -8 -34 -9 -33 0 -44 18 -20 34 6 4 13 15 17 25 10 26 27 21 27 -9z m282
-3 c10 -13 10 -14 -2 -3 -8 6 -22 12 -32 12 -10 0 -18 4 -18 9 0 14 38 1 52
-18z m-1847 9 c-3 -5 -1 -10 4 -10 6 0 11 -7 11 -15 0 -18 -7 -19 -24 -2 -14
13 -10 37 5 37 6 0 7 -4 4 -10z m1609 -4 c-3 -8 -12 -12 -20 -9 -17 6 -9 23
11 23 8 0 12 -6 9 -14z m-1661 -14 c-10 -11 -22 -17 -26 -15 -11 7 13 33 29
33 11 0 10 -5 -3 -18z m360 -21 c-12 -15 -30 -6 -30 14 0 21 1 21 17 6 9 -9
15 -18 13 -20z m1157 35 c0 -3 -4 -8 -10 -11 -5 -3 -10 -1 -10 4 0 6 5 11 10
11 6 0 10 -2 10 -4z m293 -2 c-7 -3 -9 -12 -6 -20 3 -8 1 -14 -4 -14 -5 0 -9
9 -10 20 -1 13 4 20 15 19 10 0 12 -3 5 -5z m448 -42 c-6 -2 -9 -8 -5 -13 3
-5 0 -9 -6 -9 -6 0 -10 6 -9 13 3 26 -2 36 -16 31 -8 -4 -15 -1 -15 4 0 6 11
9 25 6 16 -3 26 0 26 8 1 7 4 2 6 -12 3 -13 0 -26 -6 -28z m-2321 34 c0 -2 -7
-7 -16 -10 -8 -3 -12 -2 -9 4 6 10 25 14 25 6z m373 -16 c3 -11 1 -20 -4 -20
-5 0 -9 9 -9 20 0 11 2 20 4 20 2 0 6 -9 9 -20z m527 -6 c0 -3 -4 -3 -9 0 -5
4 -11 1 -13 -6 -3 -7 -7 -3 -10 10 -5 19 -4 20 13 11 10 -5 19 -12 19 -15z
m-820 6 c0 -5 -2 -10 -4 -10 -3 0 -8 5 -11 10 -3 6 -1 10 4 10 6 0 11 -4 11
-10z m1348 -16 c-12 -12 -17 -13 -23 -3 -5 8 -4 10 4 5 6 -4 14 0 17 9 4 9 9
13 12 10 3 -3 -1 -13 -10 -21z m89 20 c-3 -3 -12 -4 -19 -1 -8 3 -5 6 6 6 11
1 17 -2 13 -5z m-1047 -39 c0 -5 -5 -3 -10 5 -5 8 -10 20 -10 25 0 6 5 3 10
-5 5 -8 10 -19 10 -25z m-460 15 c11 -8 9 -9 -12 -8 -16 1 -28 6 -28 10 0 11
22 10 40 -2z m1353 -8 c-5 -20 -40 -25 -40 -6 0 7 6 10 13 7 6 -2 15 0 19 6
10 16 14 13 8 -7z m987 -2 c0 -5 -4 -10 -10 -10 -5 0 -10 5 -10 10 0 6 5 10
10 10 6 0 10 -4 10 -10z m-2653 -14 c0 -8 -8 -11 -19 -8 -10 2 -18 8 -18 13 0
5 8 9 18 9 10 0 19 -6 19 -14z m2786 -4 c4 9 6 8 6 -3 1 -23 -25 -45 -32 -27
-3 9 -8 7 -13 -7 -5 -11 -17 -21 -26 -21 -10 -1 -15 2 -12 7 3 5 1 9 -5 9 -5
0 -15 -8 -20 -17 -6 -10 -11 -13 -11 -7 0 7 -9 14 -19 17 -13 3 -18 0 -15 -7
3 -7 -6 -18 -20 -24 -35 -16 -40 -3 -18 51 13 31 27 34 41 10 10 -17 10 -17
11 -1 0 14 7 16 38 13 21 -2 36 -8 34 -15 -1 -6 2 -9 7 -6 5 3 7 16 4 27 -6
21 -5 21 20 5 20 -13 26 -14 30 -4z m-953 -2 c24 -15 7 -19 -20 -5 -15 8 -19
14 -10 14 8 1 22 -3 30 -9z m155 0 c3 -5 2 -10 -4 -10 -5 0 -13 5 -16 10 -3 6
-2 10 4 10 5 0 13 -4 16 -10z m855 -10 c0 -5 7 -10 15 -10 8 0 15 -4 15 -9 0
-5 -14 -8 -30 -6 -33 2 -54 15 -26 15 9 0 14 5 11 10 -3 6 -1 10 4 10 6 0 11
-4 11 -10z m-2799 -17 c13 -16 12 -17 -3 -4 -17 13 -22 21 -14 21 2 0 10 -8
17 -17z m2195 -15 c-1 -34 -26 -53 -26 -19 0 12 5 21 10 21 6 0 9 3 9 8 -2 10
0 22 4 22 2 0 3 -14 3 -32z m-2116 8 c0 -3 -4 -8 -10 -11 -5 -3 -10 -1 -10 4
0 6 5 11 10 11 6 0 10 -2 10 -4z m580 -5 c0 -6 -4 -13 -10 -16 -5 -3 -10 1
-10 9 0 9 5 16 10 16 6 0 10 -4 10 -9z m897 -16 c-4 -8 -11 -15 -17 -15 -6 0
-6 7 2 20 14 22 24 19 15 -5z m-1620 9 c-3 -3 -12 -4 -19 -1 -8 3 -5 6 6 6 11
1 17 -2 13 -5z m21 -41 c1 -16 -2 -23 -6 -18 -9 13 -42 16 -42 4 0 -5 -7 -6
-15 -3 -21 9 -9 24 16 19 11 -2 22 2 26 10 8 24 18 17 21 -12z m1245 -50 c-9
-23 -20 -14 -15 13 3 17 7 22 12 13 5 -7 6 -18 3 -26z m-38 17 c3 -5 -1 -10
-10 -10 -9 0 -13 5 -10 10 3 6 8 10 10 10 2 0 7 -4 10 -10z m-940 -10 c-11 -5
-27 -9 -35 -9 -9 0 -8 4 5 9 11 5 27 9 35 9 9 0 8 -4 -5 -9z m945 -30 c0 -5
-2 -10 -4 -10 -3 0 -8 5 -11 10 -3 6 -1 10 4 10 6 0 11 -4 11 -10z m45 -20 c3
-5 2 -10 -4 -10 -5 0 -13 5 -16 10 -3 6 -2 10 4 10 5 0 13 -4 16 -10z m5 -24
c0 -3 -4 -8 -10 -11 -5 -3 -10 -1 -10 4 0 6 5 11 10 11 6 0 10 -2 10 -4z m116
-385 c-3 -5 -15 -11 -26 -14 -17 -4 -19 -3 -9 9 12 15 44 20 35 5z m-64 -29
c-7 -2 -12 -11 -12 -20 0 -9 -12 -25 -26 -35 -29 -22 -29 -2 1 26 20 18 20 19
-2 14 -31 -7 -29 -3 10 22 21 14 33 17 36 9 2 -7 -1 -14 -7 -16z m8 -209 c0
-44 -16 -83 -35 -83 -8 0 -15 -4 -15 -8 0 -4 -18 -8 -40 -9 -22 0 -40 3 -40 8
0 5 -6 9 -14 9 -8 0 -16 7 -20 15 -7 18 3 45 16 45 6 0 24 12 42 27 17 14 44
32 61 39 35 15 45 6 45 -43z m310 47 c0 -5 -4 -10 -10 -10 -5 0 -10 5 -10 10
0 6 5 10 10 10 6 0 10 -4 10 -10z m2998 -34 c30 -1 28 -14 -3 -22 -14 -3 -25
-10 -25 -15 0 -5 -4 -9 -10 -9 -5 0 -10 7 -10 16 0 9 -3 14 -8 12 -85 -37
-105 -42 -117 -25 -7 9 -17 17 -24 17 -9 0 -9 5 -1 21 11 19 17 20 93 14 45
-4 92 -8 105 -9z m133 -163 c8 -10 9 -14 2 -10 -6 4 -15 3 -18 -3 -7 -12 -35
5 -35 21 0 16 37 10 51 -8z m-3048 -38 c4 -8 2 -17 -3 -20 -6 -4 -10 3 -10 14
0 25 6 27 13 6z m-105 -217 c-3 -7 -17 -13 -33 -13 -16 0 -30 6 -32 13 -3 8 7
12 32 12 25 0 35 -4 33 -12z m3612 -224 c16 -15 38 -45 49 -66 l20 -40 -32
-29 c-17 -16 -34 -29 -38 -29 -29 0 -64 103 -54 157 7 40 16 41 55 7z m213
-69 c-3 -9 -8 -14 -10 -11 -3 3 -2 9 2 15 9 16 15 13 8 -4z m11 -61 c4 -12 2
-12 -14 -4 -11 6 -20 15 -20 20 0 14 28 1 34 -16z m-138 -18 c18 -19 18 -36
-1 -36 -12 0 -35 28 -35 44 0 11 21 6 36 -8z m-585 -128 c50 -14 50 -28 1 -28
-36 0 -62 14 -62 32 0 11 16 10 61 -4z m-2915 -975 c-3 -20 -22 -28 -31 -14
-3 6 -1 11 4 11 6 0 11 7 11 16 0 8 4 13 9 10 5 -4 8 -14 7 -23z m-119 -126
c-4 -12 -47 54 -47 73 0 7 11 -4 25 -25 14 -20 24 -42 22 -48z m127 -98 c31
-30 56 -60 56 -67 0 -13 -23 -42 -34 -42 -14 0 -99 92 -118 126 l-20 38 28
-18 27 -19 -22 31 -22 31 25 -13 c14 -7 50 -37 80 -67z m556 -117 c0 -13 -12
-22 -22 -16 -10 6 -1 24 13 24 5 0 9 -4 9 -8z m-435 -52 c3 -5 -1 -10 -10 -10
-11 0 -14 -6 -9 -25 4 -15 2 -25 -5 -25 -6 0 -11 16 -11 35 0 34 20 49 35 25z
m882 -12 c-3 -8 -6 -5 -6 6 -1 11 2 17 5 13 3 -3 4 -12 1 -19z m43 -3 c0 -8
-6 -15 -12 -15 -9 0 -8 -4 2 -10 11 -7 11 -10 2 -10 -7 0 -10 -5 -7 -10 4 -6
11 -8 16 -5 19 12 28 -5 17 -30 -6 -14 -13 -23 -15 -21 -3 2 0 14 7 25 12 23
5 28 -13 9 -13 -14 -14 -41 -2 -73 7 -17 5 -16 -13 4 -12 13 -22 19 -22 12 0
-7 -5 -9 -12 -5 -7 5 -5 12 8 22 16 13 17 14 2 9 -10 -4 -18 -2 -18 4 0 6 -4
7 -10 4 -5 -3 -10 -1 -10 5 0 7 -6 10 -13 7 -7 -3 -19 3 -25 14 -13 20 -6 52
9 43 14 -8 11 -26 -3 -18 -8 4 -10 3 -5 -2 5 -5 10 -7 11 -4 2 3 11 -2 22 -10
17 -13 18 -13 7 0 -9 12 -8 19 2 34 8 10 18 15 23 12 14 -8 43 4 36 15 -3 5 0
9 5 9 6 0 11 -7 11 -15z m-670 -5 c0 -5 -5 -10 -11 -10 -5 0 -7 5 -4 10 3 6 8
10 11 10 2 0 4 -4 4 -10z m585 0 c3 -5 1 -10 -4 -10 -6 0 -11 5 -11 10 0 6 2
10 4 10 3 0 8 -4 11 -10z m-782 -31 c-3 -21 -1 -29 6 -24 6 3 11 2 11 -4 0 -5
3 -17 7 -26 5 -14 2 -16 -15 -10 -13 4 -22 2 -22 -4 0 -6 15 -11 33 -11 24 0
28 -3 17 -10 -8 -5 -16 -19 -16 -30 -1 -16 3 -19 17 -15 29 10 22 -4 -8 -17
-28 -11 -28 -12 -4 -16 l23 -4 -21 -14 c-12 -9 -21 -26 -21 -41 0 -21 -4 -25
-24 -21 -21 4 -23 3 -13 -14 7 -10 14 -18 17 -18 3 0 6 -9 6 -20 0 -21 -20
-27 -31 -10 -10 17 -25 11 -18 -7 5 -16 4 -16 -8 -3 -8 8 -20 20 -28 27 -11
10 -7 11 24 6 27 -4 36 -3 31 5 -4 6 -13 9 -21 5 -9 -3 -22 0 -30 7 -8 6 -18
9 -23 6 -5 -3 -9 11 -9 32 1 20 -2 46 -6 57 -5 16 0 25 21 37 20 13 22 18 10
18 -20 0 -21 2 -12 24 3 9 12 16 20 16 8 0 14 5 14 11 0 6 -7 8 -17 4 -14 -5
-15 -4 -6 6 9 9 10 16 2 26 -8 9 -8 13 -1 13 6 0 12 -5 14 -12 2 -6 10 -8 17
-4 7 5 10 14 7 22 -5 13 6 19 27 15 5 -1 6 3 3 8 -5 8 7 18 26 20 3 1 4 -13 1
-30z m947 1 c0 -5 -5 -10 -11 -10 -5 0 -7 5 -4 10 3 6 8 10 11 10 2 0 4 -4 4
-10z m-880 -10 c0 -5 -5 -10 -11 -10 -5 0 -7 5 -4 10 3 6 8 10 11 10 2 0 4 -4
4 -10z m950 -15 c-9 -11 -9 -15 -1 -15 7 0 9 -5 5 -12 -5 -7 -2 -9 7 -6 10 4
15 -1 15 -13 0 -21 -11 -25 -21 -9 -10 16 -23 12 -29 -8 -4 -10 -13 -19 -21
-19 -18 0 -19 9 -2 27 10 12 9 12 -4 2 -9 -6 -19 -8 -24 -4 -4 4 -5 -6 -3 -23
3 -16 3 -24 1 -17 -3 7 -9 9 -15 6 -7 -5 -9 2 -6 19 3 15 1 24 -3 21 -5 -3 -9
9 -9 25 0 17 5 31 11 31 5 0 7 -6 3 -12 -6 -10 -4 -10 7 0 18 17 34 15 20 -2
-9 -11 -9 -15 1 -18 7 -3 19 2 26 11 8 9 11 11 8 5 -3 -7 1 -15 10 -18 11 -4
15 -2 11 8 -3 7 0 19 6 25 16 16 21 13 7 -4z m-860 -29 c0 -3 -4 -8 -10 -11
-5 -3 -10 -1 -10 4 0 6 5 11 10 11 6 0 10 -2 10 -4z m-347 -41 c4 -8 2 -17 -3
-20 -6 -4 -10 3 -10 14 0 25 6 27 13 6z m-6 -76 c-3 -10 0 -20 6 -22 6 -2 11
-47 11 -118 1 -92 5 -119 20 -141 10 -15 17 -41 15 -60 -1 -18 1 -45 6 -60 7
-26 8 -26 30 -12 21 13 23 13 28 -6 3 -11 2 -22 -2 -24 -4 -3 -8 -19 -9 -36
-2 -29 0 -31 20 -24 20 6 21 5 10 -9 -11 -13 -10 -19 7 -36 11 -11 16 -23 12
-26 -5 -3 -3 -25 4 -49 7 -24 12 -59 11 -77 -2 -19 -4 -42 -5 -51 -2 -30 -15
-20 -41 32 -13 28 -29 49 -35 46 -17 -6 -35 28 -28 54 4 13 0 25 -8 31 -8 4
-14 16 -14 26 0 12 -9 19 -28 21 -33 4 -62 -15 -49 -32 23 -29 21 -46 -8 -63
-17 -9 -30 -25 -30 -35 0 -10 -5 -18 -11 -18 -6 0 -8 9 -4 21 5 14 3 19 -3 15
-25 -15 11 110 39 137 18 17 21 17 36 2 27 -28 37 5 16 51 -13 28 -15 38 -6
41 10 4 9 9 -1 26 -18 29 -28 97 -14 97 6 0 8 10 4 24 -3 14 -1 28 5 32 8 4 7
9 -2 14 -8 6 -14 38 -16 94 -2 71 0 86 12 86 18 0 18 13 0 64 -8 22 -11 44 -8
49 9 15 36 -42 30 -64z m727 55 c24 -9 19 -24 -7 -24 -14 0 -24 6 -24 15 0 16
7 18 31 9z m162 -68 c14 -11 16 -18 8 -26 -16 -16 -55 5 -48 25 8 19 15 19 40
1z m-549 -12 c-3 -3 -12 -4 -19 -1 -8 3 -5 6 6 6 11 1 17 -2 13 -5z m-21 -31
c-7 -7 -26 7 -26 19 0 6 6 6 15 -2 9 -7 13 -15 11 -17z m1027 10 c-7 -2 -19
-2 -25 0 -7 3 -2 5 12 5 14 0 19 -2 13 -5z m-127 -14 c5 -8 9 -8 14 1 6 9 11
7 19 -7 8 -17 6 -22 -12 -30 -23 -11 -67 -1 -67 15 0 10 21 32 31 32 4 0 11
-5 15 -11z m-413 -48 c4 0 7 -9 7 -18 -1 -16 -2 -16 -13 -2 -7 9 -17 14 -24
12 -6 -2 -14 0 -17 5 -5 8 13 9 47 3z m-617 -66 c10 -8 14 -15 8 -15 -5 0 -19
7 -30 15 -10 8 -14 15 -8 15 5 0 19 -7 30 -15z m2635 -5 c30 -16 24 -40 -10
-40 -31 0 -51 28 -29 42 16 10 16 10 39 -2z m-2171 -59 c-8 -5 -26 -11 -40
-15 -21 -5 -20 -3 5 9 32 15 60 20 35 6z m-23 -36 c0 -14 -25 -30 -34 -21 -3
3 24 36 31 36 1 0 3 -7 3 -15z m-543 -61 c4 -9 4 -19 2 -21 -8 -8 -26 8 -26
23 0 19 16 18 24 -2z m2573 -26 c-3 -8 -6 -5 -6 6 -1 11 2 17 5 13 3 -3 4 -12
1 -19z m-2047 -2 c0 -10 -32 -36 -43 -36 -7 0 -1 9 13 20 26 21 30 23 30 16z
m-311 -78 c-23 -70 -31 -86 -50 -91 -26 -7 -24 10 2 18 13 5 17 11 11 18 -5 7
-12 19 -15 28 -4 13 -1 16 14 12 12 -4 19 0 19 9 0 12 18 38 26 38 2 0 -2 -15
-7 -32z m251 -6 c0 -4 -9 -13 -20 -20 -19 -12 -20 -11 -8 8 13 20 28 27 28 12z
m-421 -28 c-15 -18 -22 -13 -13 10 3 9 10 13 16 10 5 -3 4 -12 -3 -20z m528 4
c-3 -8 -6 -5 -6 6 -1 11 2 17 5 13 3 -3 4 -12 1 -19z m613 -8 c0 -5 -2 -10 -4
-10 -3 0 -8 5 -11 10 -3 6 -1 10 4 10 6 0 11 -4 11 -10z m-757 -22 c-4 -7 -8
-17 -8 -22 0 -5 -6 -11 -12 -13 -16 -6 -17 19 -1 35 16 16 31 15 21 0z m362 2
c-3 -5 -1 -10 4 -10 6 0 11 5 11 12 0 6 3 9 6 5 13 -13 -5 -35 -25 -30 -19 5
-19 33 1 33 5 0 6 -4 3 -10z m349 -45 c7 -45 2 -38 -13 19 -6 22 -6 35 -1 30
4 -5 11 -27 14 -49z m70 39 c3 -8 2 -12 -4 -9 -6 3 -10 10 -10 16 0 14 7 11
14 -7z m-704 -14 c0 -13 -5 -18 -15 -14 -8 4 -15 12 -15 20 0 8 7 14 15 14 8
0 15 -9 15 -20z m243 -10 c3 -11 1 -20 -4 -20 -5 0 -9 9 -9 20 0 11 2 20 4 20
2 0 6 -9 9 -20z m152 -10 c3 -5 1 -10 -4 -10 -6 0 -11 5 -11 10 0 6 2 10 4 10
3 0 8 -4 11 -10z m-60 -32 c5 -4 0 -8 -11 -8 -12 0 -29 9 -40 21 -19 21 -19
21 11 8 17 -7 34 -16 40 -21z m413 -15 c-5 -7 -14 -10 -19 -7 -16 10 -9 23 10
21 15 -1 17 -4 9 -14z m-33 -13 c3 -5 1 -10 -4 -10 -6 0 -11 5 -11 10 0 6 2
10 4 10 3 0 8 -4 11 -10z m-55 -10 c0 -5 -5 -10 -11 -10 -5 0 -7 5 -4 10 3 6
8 10 11 10 2 0 4 -4 4 -10z m-66 -16 c3 -8 2 -12 -4 -9 -6 3 -10 10 -10 16 0
14 7 11 14 -7z m-682 -26 c-7 -7 -12 -8 -12 -2 0 6 3 14 7 17 3 4 9 5 12 2 2
-3 -1 -11 -7 -17z m88 5 c0 -7 9 -13 21 -13 13 0 18 -4 13 -12 -5 -8 -2 -9 10
-5 10 4 27 1 38 -7 11 -8 27 -12 34 -9 8 3 14 0 14 -7 0 -7 14 -11 38 -9 21 2
52 -3 70 -10 l31 -13 -22 -18 c-28 -23 -19 -32 35 -35 55 -4 53 -2 38 -20 -14
-17 -7 -31 10 -20 14 8 5 74 -12 90 -7 7 -9 3 -5 -12 3 -13 1 -23 -5 -23 -5 0
-8 10 -6 22 4 28 38 38 39 11 0 -10 3 -13 6 -6 4 10 9 10 26 1 12 -7 30 -11
40 -9 9 1 17 -2 17 -7 0 -14 -43 -23 -54 -12 -16 16 -26 12 -26 -9 0 -24 19
-38 30 -21 4 6 10 12 13 12 22 0 47 12 47 23 0 7 15 16 33 19 45 9 49 9 79 3
18 -4 28 -1 32 10 5 12 9 13 21 3 12 -10 15 -10 15 1 0 12 2 12 9 0 5 -7 14
-10 20 -7 7 4 11 -1 11 -13 0 -10 3 -28 7 -38 5 -14 4 -16 -8 -7 -30 23 -49
24 -49 3 0 -11 4 -18 9 -15 5 4 7 -3 4 -14 -3 -10 -15 -23 -27 -27 -11 -4 -23
-8 -26 -9 -3 -1 -15 -5 -27 -9 -16 -5 -23 -16 -24 -34 -1 -26 -2 -25 -9 4 -4
17 -8 26 -9 20 0 -5 -19 -11 -41 -12 -22 -1 -46 -2 -52 -3 -7 -1 -41 1 -75 4
-40 3 -63 1 -63 -5 0 -6 -7 -3 -16 5 -8 9 -19 14 -24 11 -4 -3 -20 2 -36 10
-15 7 -31 12 -36 9 -5 -3 -22 6 -39 20 -17 14 -41 29 -54 32 -13 3 -26 12 -29
21 -3 8 -10 11 -16 8 -6 -4 -10 5 -10 19 0 14 -4 26 -9 26 -5 0 -12 11 -15 25
-7 27 -24 32 -45 13 -11 -11 -13 -10 -8 4 4 12 2 15 -9 11 -10 -4 -12 0 -8 12
12 30 84 45 84 18z m658 -18 c-3 -3 -9 2 -12 12 -6 14 -5 15 5 6 7 -7 10 -15
7 -18z m102 0 c7 -9 8 -15 2 -15 -5 0 -12 7 -16 15 -3 8 -4 15 -2 15 2 0 9 -7
16 -15z m-40 -35 c0 -5 -4 -10 -10 -10 -5 0 -10 5 -10 10 0 6 5 10 10 10 6 0
10 -4 10 -10z m189 -89 c2 -1 -2 -8 -9 -16 -10 -12 -16 -13 -26 -4 -29 24 -17
30 35 20z m-215 -37 c9 -24 7 -28 -9 -14 -17 14 -20 30 -6 30 5 0 12 -7 15
-16z m292 -13 c-12 -19 -24 -12 -19 10 4 13 9 17 15 11 6 -6 7 -15 4 -21z
m-76 -1 c0 -5 -5 -10 -11 -10 -5 0 -7 5 -4 10 3 6 8 10 11 10 2 0 4 -4 4 -10z
m-1040 -50 c0 -5 -4 -10 -9 -10 -6 0 -13 5 -16 10 -3 6 1 10 9 10 9 0 16 -4
16 -10z m-690 -20 c0 -5 -4 -10 -10 -10 -5 0 -10 5 -10 10 0 6 5 10 10 10 6 0
10 -4 10 -10z m420 -179 c0 -5 -7 -14 -15 -21 -12 -10 -15 -10 -15 2 0 8 3 18
7 21 9 10 23 9 23 -2z m1978 -175 c-10 -7 -15 -16 -11 -19 3 -4 -2 -7 -13 -7
-17 1 -17 2 5 20 13 11 26 20 30 20 3 0 -2 -7 -11 -14z m-58 -61 c0 -8 -4 -15
-9 -15 -13 0 -22 16 -14 24 11 11 23 6 23 -9z m-57 -35 c-5 -20 -33 -29 -33
-10 0 7 25 27 37 30 0 0 -1 -9 -4 -20z m-63 -30 c0 -5 -5 -10 -11 -10 -5 0 -7
5 -4 10 3 6 8 10 11 10 2 0 4 -4 4 -10z m-1500 -12 c0 -14 -40 -58 -52 -58
-15 0 -8 23 14 47 24 25 38 29 38 11z m-91 -118 c-2 -96 -5 -110 -25 -110 -21
0 -23 109 -3 184 16 61 30 26 28 -74z m1495 18 c-25 -75 -70 -174 -84 -183 -7
-5 -11 7 -11 37 0 23 -1 61 -2 83 -1 46 25 92 60 101 12 3 28 13 35 21 20 25
21 -2 2 -59z m-1394 28 c0 -16 -11 -31 -32 -44 -42 -27 -56 -17 -24 17 14 15
26 32 26 39 0 7 7 12 15 12 9 0 15 -9 15 -24z m40 20 c0 -3 -4 -8 -10 -11 -5
-3 -10 -1 -10 4 0 6 5 11 10 11 6 0 10 -2 10 -4z m-832 -64 c2 -7 -3 -12 -12
-12 -9 0 -16 7 -16 16 0 17 22 14 28 -4z m1480 -23 c-2 -6 -8 -10 -13 -10 -5
0 -11 4 -13 10 -2 6 4 11 13 11 9 0 15 -5 13 -11z m342 -49 c11 -7 3 -10 -28
-10 -26 0 -41 4 -37 10 8 13 45 13 65 0z m120 -58 c0 -13 -12 -22 -22 -16 -10
6 -1 24 13 24 5 0 9 -4 9 -8z m-80 -21 c0 -18 -18 -21 -30 -6 -10 13 -9 15 9
15 11 0 21 -4 21 -9z m-1972 -67 c-5 -32 -11 -61 -14 -65 -3 -5 0 -17 5 -27 7
-13 6 -27 -4 -46 -10 -18 -13 -45 -9 -83 5 -62 -12 -117 -35 -108 -8 3 -11 0
-8 -9 3 -8 -1 -17 -10 -20 -12 -5 -15 -1 -11 21 3 16 2 42 -2 58 -4 19 0 45
12 73 9 23 17 57 17 75 0 53 25 163 43 184 19 23 25 4 16 -53z m872 -319 c7
-9 10 -18 7 -22 -8 -7 -37 15 -37 28 0 14 16 11 30 -6z m-53 -41 c-3 -3 -12
-4 -19 -1 -8 3 -5 6 6 6 11 1 17 -2 13 -5z m-857 -33 c0 -11 -6 -26 -13 -33
-8 -7 -12 -19 -9 -27 3 -8 0 -11 -6 -8 -14 9 -20 52 -10 71 13 22 38 20 38 -3z
m-44 -792 c3 -6 2 -15 -3 -20 -13 -13 -43 -1 -43 17 0 16 36 19 46 3z"/>
<path d="M3397 2504 c-10 -13 -13 -24 -8 -24 10 0 36 39 29 45 -2 2 -11 -8
-21 -21z"/>
<path d="M3670 2461 c0 -12 5 -21 10 -21 6 0 10 6 10 14 0 8 -4 18 -10 21 -5
3 -10 -3 -10 -14z"/>
<path d="M3765 2460 c3 -5 8 -10 11 -10 2 0 4 5 4 10 0 6 -5 10 -11 10 -5 0
-7 -4 -4 -10z"/>
<path d="M3600 2445 c-7 -9 -8 -15 -2 -15 5 0 12 7 16 15 3 8 4 15 2 15 -2 0
-9 -7 -16 -15z"/>
<path d="M1776 7036 c3 -9 13 -16 22 -16 8 0 13 1 11 3 -2 1 -12 9 -22 16 -15
12 -17 12 -11 -3z"/>
<path d="M3020 7035 c0 -8 2 -15 4 -15 2 0 6 7 10 15 3 8 1 15 -4 15 -6 0 -10
-7 -10 -15z"/>
<path d="M2925 7020 c3 -5 8 -10 11 -10 2 0 4 5 4 10 0 6 -5 10 -11 10 -5 0
-7 -4 -4 -10z"/>
<path d="M1810 6999 c0 -5 5 -7 10 -4 6 3 10 8 10 11 0 2 -4 4 -10 4 -5 0 -10
-5 -10 -11z"/>
<path d="M1870 6996 c0 -3 9 -10 20 -16 11 -6 20 -8 20 -6 0 3 -9 10 -20 16
-11 6 -20 8 -20 6z"/>
<path d="M1951 6975 c0 -5 6 -18 13 -27 12 -17 14 -17 32 4 19 21 19 21 -1 11
-15 -9 -22 -7 -32 5 -7 10 -12 13 -12 7z"/>
<path d="M3593 6965 c0 -8 4 -12 9 -9 5 3 6 10 3 15 -9 13 -12 11 -12 -6z"/>
<path d="M1800 6960 c0 -4 7 -7 15 -6 23 3 26 12 5 13 -11 1 -20 -2 -20 -7z"/>
<path d="M3648 6963 c7 -3 16 -2 19 1 4 3 -2 6 -13 5 -11 0 -14 -3 -6 -6z"/>
<path d="M3676 6952 c-7 -12 12 -38 21 -29 4 5 1 12 -6 16 -11 7 -11 10 0 14
9 3 10 6 2 6 -6 1 -14 -3 -17 -7z"/>
<path d="M1916 6938 c-5 -10 -14 -18 -22 -18 -8 0 -14 -7 -14 -15 0 -8 -8 -15
-17 -15 -15 0 -16 -2 -3 -10 13 -9 13 -10 0 -10 -9 0 -21 5 -27 11 -9 9 -10 7
-6 -10 7 -29 19 -27 57 14 32 34 50 38 39 8 -5 -13 -3 -13 17 -3 24 13 39 2
41 -30 0 -10 3 -8 9 5 5 11 9 15 9 10 1 -6 9 -11 20 -11 13 0 19 7 19 23 0 28
-14 39 -32 24 -21 -18 -74 -2 -79 23 -3 19 -4 19 -11 4z m114 -38 c0 -5 -4
-10 -10 -10 -5 0 -10 5 -10 10 0 6 5 10 10 10 6 0 10 -4 10 -10z"/>
<path d="M1895 6870 c3 -5 1 -10 -4 -10 -20 0 -11 -16 9 -17 11 -1 20 0 20 2
0 13 -14 35 -22 35 -5 0 -6 -4 -3 -10z"/>
<path d="M1938 6856 c-4 -17 -1 -23 9 -19 14 6 18 43 4 43 -5 0 -11 -11 -13
-24z"/>
<path d="M2408 6733 c7 -3 16 -2 19 1 4 3 -2 6 -13 5 -11 0 -14 -3 -6 -6z"/>
<path d="M1651 6652 c-1 -8 -6 -10 -13 -6 -7 4 -10 4 -6 -1 4 -4 -2 -16 -14
-27 -12 -10 -18 -21 -15 -25 4 -3 16 4 27 18 12 13 24 19 28 14 4 -6 14 -11
22 -13 13 -2 12 0 -1 10 -9 7 -18 20 -22 28 -4 10 -6 11 -6 2z"/>
<path d="M1420 6609 c0 -5 5 -7 10 -4 6 3 10 8 10 11 0 2 -4 4 -10 4 -5 0 -10
-5 -10 -11z"/>
<path d="M1100 6536 c0 -14 4 -27 8 -30 5 -3 8 8 8 25 0 16 -3 29 -8 29 -4 0
-8 -11 -8 -24z"/>
<path d="M2815 6540 c3 -5 8 -10 11 -10 2 0 4 5 4 10 0 6 -5 10 -11 10 -5 0
-7 -4 -4 -10z"/>
<path d="M960 6530 c0 -15 21 -23 32 -12 6 6 2 11 -11 15 -12 3 -21 1 -21 -3z"/>
<path d="M1146 6516 c3 -9 11 -16 16 -16 13 0 5 23 -10 28 -7 2 -10 -2 -6 -12z"/>
<path d="M1235 6510 c-3 -6 1 -7 9 -4 18 7 21 14 7 14 -6 0 -13 -4 -16 -10z"/>
<path d="M2520 6500 c0 -6 5 -10 11 -10 5 0 7 -5 3 -12 -4 -7 -3 -8 4 -4 16
10 15 23 -3 30 -8 3 -15 1 -15 -4z"/>
<path d="M2560 6500 c0 -5 5 -10 10 -10 6 0 10 5 10 10 0 6 -4 10 -10 10 -5 0
-10 -4 -10 -10z"/>
<path d="M2413 6493 c4 -3 1 -13 -6 -21 -10 -13 -9 -14 12 -3 17 9 26 10 34 2
6 -6 15 -11 20 -11 5 0 -2 9 -16 20 -23 18 -60 29 -44 13z"/>
<path d="M2486 6486 c3 -9 11 -16 16 -16 13 0 5 23 -10 28 -7 2 -10 -2 -6 -12z"/>
<path d="M1351 6469 c10 -6 10 -9 1 -9 -10 0 -10 -4 0 -20 7 -11 17 -20 22
-20 4 0 3 6 -3 14 -8 10 -9 16 -1 21 16 10 30 -4 30 -32 0 -36 11 -22 14 17 2
22 -2 29 -11 26 -7 -3 -13 -2 -13 2 0 4 -12 8 -27 9 -19 1 -22 -1 -12 -8z"/>
<path d="M2315 6471 c3 -6 -3 -14 -12 -20 -11 -6 -13 -11 -5 -11 7 0 20 -7 28
-15 9 -8 21 -15 27 -15 6 0 1 7 -11 16 -26 18 -29 36 -4 27 15 -6 15 -5 3 10
-14 18 -37 24 -26 8z"/>
<path d="M905 6460 c-3 -5 -1 -10 5 -10 6 0 8 -4 5 -10 -3 -6 1 -7 9 -4 9 3
16 2 16 -4 0 -6 -4 -12 -10 -14 -6 -2 -6 -9 0 -18 7 -12 11 -10 18 10 14 35
-25 79 -43 50z"/>
<path d="M1111 6462 c-1 -7 6 -15 14 -18 8 -4 12 -10 9 -15 -3 -5 0 -9 5 -9 6
0 11 7 11 15 0 8 -6 15 -14 15 -8 0 -17 6 -19 13 -4 9 -6 9 -6 -1z"/>
<path d="M1305 6460 c-3 -5 -2 -10 4 -10 5 0 13 5 16 10 3 6 2 10 -4 10 -5 0
-13 -4 -16 -10z"/>
<path d="M2177 6453 c-12 -12 -7 -22 8 -17 8 4 15 10 15 15 0 11 -14 12 -23 2z"/>
<path d="M2482 6451 c-8 -4 -10 -15 -6 -26 7 -17 8 -16 16 5 10 27 7 32 -10
21z"/>
<path d="M1252 6437 c-7 -8 -7 -18 -2 -27 7 -11 10 -12 10 -2 0 7 4 11 9 8 5
-4 7 3 4 14 -6 24 -7 24 -21 7z"/>
<path d="M1198 6419 c-10 -10 -14 -19 -10 -19 5 0 17 9 27 20 10 11 14 20 9
19 -5 0 -17 -9 -26 -20z"/>
<path d="M1294 6415 c1 -22 18 -24 24 -3 3 10 1 9 -6 -1 -8 -12 -11 -11 -15 5
-4 17 -4 17 -3 -1z"/>
<path d="M2517 6427 c-5 -12 -1 -17 13 -17 11 0 20 5 20 11 0 5 -4 8 -9 5 -5
-4 -11 -1 -13 6 -3 8 -7 6 -11 -5z"/>
<path d="M2443 6415 c0 -8 4 -15 9 -15 4 0 8 4 8 9 0 6 -4 12 -8 15 -5 3 -9
-1 -9 -9z"/>
<path d="M2370 6405 c-10 -13 -9 -15 11 -15 17 0 20 3 10 9 -11 7 -11 9 0 14
8 3 9 6 3 6 -6 1 -17 -6 -24 -14z"/>
<path d="M890 6400 c0 -5 5 -10 10 -10 6 0 6 -7 -2 -19 -6 -10 -17 -17 -24
-14 -7 2 -20 -7 -29 -21 -10 -14 -21 -23 -26 -20 -5 3 -9 1 -9 -4 0 -6 7 -12
15 -16 9 -3 15 0 15 10 0 11 6 14 23 8 12 -4 25 -12 29 -18 6 -8 8 -7 8 1 0 7
6 10 14 7 7 -3 17 3 20 13 7 17 8 17 20 2 10 -15 14 -15 31 -3 14 11 15 14 4
16 -8 0 -18 2 -24 3 -5 2 -16 3 -22 4 -7 0 -13 6 -13 12 0 5 5 7 10 4 19 -12
10 10 -14 33 -26 24 -36 28 -36 12z m-10 -64 c0 -3 -4 -8 -10 -11 -5 -3 -10
-1 -10 4 0 6 5 11 10 11 6 0 10 -2 10 -4z m34 -2 c9 -3 14 -10 11 -15 -7 -10
-35 0 -35 12 0 11 3 11 24 3z"/>
<path d="M1215 6401 c-3 -5 -2 -12 3 -15 5 -3 9 1 9 9 0 17 -3 19 -12 6z"/>
<path d="M870 6380 c0 -5 5 -10 10 -10 6 0 10 5 10 10 0 6 -4 10 -10 10 -5 0
-10 -4 -10 -10z"/>
<path d="M1381 6374 c0 -11 3 -14 6 -6 3 7 2 16 -1 19 -3 4 -6 -2 -5 -13z"/>
<path d="M2780 6344 c0 -8 9 -14 20 -14 10 0 24 -9 30 -20 6 -11 20 -20 30
-20 13 0 20 7 20 20 0 11 -4 20 -10 20 -5 0 -8 -6 -6 -12 1 -7 1 -10 -2 -5 -2
4 -21 16 -43 26 -31 15 -39 16 -39 5z"/>
<path d="M770 6320 c-13 -8 -12 -10 3 -10 9 0 17 5 17 10 0 12 -1 12 -20 0z"/>
<path d="M2735 6320 c-3 -5 -17 -10 -31 -10 -13 0 -24 -4 -24 -10 0 -5 -16
-10 -35 -10 -27 0 -35 -4 -35 -17 0 -15 -2 -15 -9 -4 -5 8 -16 11 -26 8 -9 -4
-13 -12 -10 -18 4 -5 10 -8 13 -5 3 3 14 -2 25 -11 10 -10 21 -17 23 -15 2 1
19 2 37 1 25 0 28 -2 12 -8 -19 -8 -19 -8 0 -19 17 -10 18 -13 5 -23 -12 -8
-8 -9 15 -3 75 18 88 -1 19 -27 -38 -15 -43 -15 -49 -1 -4 12 -18 14 -76 9
-38 -3 -83 -13 -99 -21 -16 -8 -38 -12 -47 -10 -11 3 -23 -4 -31 -17 -17 -27
-13 -31 26 -20 17 5 40 7 50 4 11 -2 22 -1 25 4 3 4 28 6 56 5 31 -3 49 -8 45
-14 -4 -6 1 -8 14 -4 12 4 22 1 25 -7 3 -9 16 -12 35 -9 30 4 38 -7 62 -82 5
-17 9 -15 27 17 20 32 27 37 60 37 21 0 53 -4 72 -10 20 -5 40 -6 50 0 21 11
36 2 45 -27 15 -47 81 -18 68 29 -2 10 8 41 22 69 15 27 24 49 21 49 -3 0 23
25 59 55 38 33 63 61 60 69 -3 9 -27 14 -74 15 -67 2 -70 1 -76 -24 -3 -14 -3
-33 0 -42 4 -12 0 -9 -12 6 -16 20 -20 21 -25 7 -4 -9 -3 -24 0 -33 6 -16 5
-16 -10 -4 -9 7 -17 9 -17 4 0 -6 -19 -9 -42 -8 -30 2 -46 9 -56 24 -8 11 -20
21 -26 21 -6 0 -28 11 -48 25 -20 14 -48 25 -61 25 -25 0 -52 22 -40 33 3 4 4
7 0 7 -3 0 -9 -4 -12 -10z m8 -37 c-7 -2 -21 -2 -30 0 -10 3 -4 5 12 5 17 0
24 -2 18 -5z"/>
<path d="M2530 6276 c0 -8 4 -17 9 -21 6 -3 9 4 8 15 -1 23 -17 28 -17 6z"/>
<path d="M2945 6220 c3 -5 11 -10 16 -10 6 0 7 5 4 10 -3 6 -11 10 -16 10 -6
0 -7 -4 -4 -10z"/>
<path d="M2285 6183 c-11 -3 -24 -9 -29 -14 -6 -5 -22 -9 -37 -9 -15 0 -33 -8
-40 -17 -8 -9 -9 -14 -3 -10 6 3 20 0 30 -8 25 -19 32 -19 39 4 3 11 19 22 35
26 17 4 30 13 30 21 0 8 -1 13 -2 13 -2 -1 -12 -3 -23 -6z"/>
<path d="M2363 6120 c-13 -5 -23 -14 -23 -20 0 -15 12 -12 40 10 27 21 20 25
-17 10z"/>
<path d="M2310 6030 c0 -6 7 -10 15 -10 8 0 15 2 15 4 0 2 -7 6 -15 10 -8 3
-15 1 -15 -4z"/>
<path d="M2481 6026 c-7 -8 -24 -17 -38 -21 -34 -8 -82 -45 -60 -45 9 0 35 9
57 21 22 12 46 19 54 16 19 -8 28 19 12 32 -10 8 -16 7 -25 -3z"/>
<path d="M2978 5973 c-10 -3 -18 -11 -18 -19 0 -16 37 -19 59 -5 11 7 10 11
-5 18 -11 5 -27 8 -36 6z"/>
<path d="M4514 5960 c0 -13 4 -16 10 -10 7 7 7 13 0 20 -6 6 -10 3 -10 -10z"/>
<path d="M4589 5951 c7 -5 10 -14 7 -20 -8 -12 6 -15 17 -4 9 8 -12 33 -27 33
-6 0 -5 -4 3 -9z"/>
<path d="M2335 5940 c3 -5 8 -10 11 -10 2 0 4 5 4 10 0 6 -5 10 -11 10 -5 0
-7 -4 -4 -10z"/>
<path d="M4275 5940 c-3 -5 -1 -10 4 -10 6 0 11 5 11 10 0 6 -2 10 -4 10 -3 0
-8 -4 -11 -10z"/>
<path d="M3030 5931 c0 -5 7 -12 16 -15 14 -5 15 -4 4 9 -14 17 -20 19 -20 6z"/>
<path d="M2726 5913 c-12 -12 -6 -33 9 -33 8 0 15 6 15 14 0 17 -14 28 -24 19z"/>
<path d="M2958 5873 c-22 -5 -23 -19 -3 -27 9 -3 19 3 25 14 11 20 9 21 -22
13z"/>
<path d="M6058 5353 c7 -3 16 -2 19 1 4 3 -2 6 -13 5 -11 0 -14 -3 -6 -6z"/>
<path d="M5325 5302 c-27 -36 -36 -60 -25 -67 6 -4 10 4 10 16 0 13 10 33 22
46 12 13 20 25 17 27 -2 2 -13 -8 -24 -22z"/>
<path d="M6040 5223 c0 -4 5 -15 10 -23 8 -13 10 -13 10 2 0 9 -4 20 -10 23
-5 3 -10 3 -10 -2z"/>
<path d="M3252 5079 c11 -23 28 -43 37 -46 9 -2 24 -9 33 -14 10 -5 24 -9 31
-9 20 0 9 52 -15 68 -10 7 -18 18 -18 24 0 7 6 6 15 -2 9 -8 15 -9 15 -2 0 17
-18 24 -36 14 -9 -5 -15 -12 -15 -15 6 -42 -14 -51 -28 -13 -5 13 -16 26 -25
29 -12 5 -11 -2 6 -34z"/>
<path d="M3000 5094 c0 -9 -6 -14 -12 -11 -7 2 -21 -5 -31 -17 -15 -17 -20
-18 -27 -6 -7 11 -5 19 7 28 13 9 14 12 2 12 -18 0 -74 -59 -83 -87 -4 -13
-12 -23 -17 -23 -5 0 -9 -9 -9 -19 0 -13 -18 -30 -54 -50 -63 -37 -74 -38 -78
-9 -4 26 -30 31 -64 13 -29 -15 -63 -68 -38 -58 8 3 14 10 14 16 0 6 8 2 19
-9 16 -17 17 -22 4 -47 -12 -24 -12 -28 2 -34 14 -5 14 -8 3 -15 -10 -7 -9
-12 7 -24 18 -14 20 -13 23 5 3 21 13 27 26 14 3 -4 15 -7 25 -8 14 -1 17 5
16 30 -1 18 -5 37 -9 44 -9 14 1 31 17 31 15 0 51 -78 48 -102 -1 -10 3 -18 9
-18 8 0 10 -9 6 -23 -4 -17 1 -30 19 -47 19 -18 22 -26 13 -32 -10 -6 -9 -8 3
-8 9 0 26 -13 39 -30 12 -16 27 -27 31 -24 5 3 9 -1 9 -9 0 -16 42 -31 78 -28
17 2 25 -4 29 -19 5 -18 12 -21 39 -18 26 3 35 -1 43 -19 l11 -23 40 26 c33
22 42 24 55 14 13 -10 18 -11 28 -1 9 10 8 11 -7 5 -16 -6 -18 -4 -13 10 4 10
7 22 7 28 0 7 5 7 13 -1 8 -6 18 -7 22 -3 5 4 5 -1 1 -12 -5 -16 -3 -17 20
-12 15 4 30 3 33 -2 3 -5 20 -12 36 -16 27 -6 32 -3 43 26 6 17 14 29 18 25 3
-3 16 3 27 14 17 16 19 23 10 37 -6 9 -16 16 -22 14 -15 -3 -14 11 1 26 9 9 9
12 -1 12 -11 0 -11 3 0 17 11 13 11 17 1 20 -6 3 -10 9 -6 14 3 5 1 9 -4 9 -6
0 -13 7 -16 16 -6 15 -4 15 10 3 16 -13 16 -12 7 6 -6 11 -8 27 -6 35 4 12 3
12 -5 1 -11 -15 -27 2 -17 19 3 6 3 19 0 31 -6 17 -9 18 -23 7 -13 -11 -15
-11 -9 5 4 9 10 25 13 35 5 16 5 16 -9 0 -17 -21 -29 -23 -26 -5 4 29 -2 39
-17 33 -14 -6 -15 -4 -4 9 11 13 10 19 -5 33 -17 16 -17 16 -11 -3 6 -20 6
-20 -9 -1 -8 11 -15 27 -15 35 0 14 -1 14 -10 1 -7 -11 -10 -7 -10 17 0 17 -4
35 -10 38 -5 3 -10 1 -10 -6 0 -8 -3 -9 -13 0 -8 6 -17 8 -20 4 -4 -3 -7 -1
-7 6 0 7 -4 10 -9 7 -5 -3 -12 1 -15 10 -4 10 -14 14 -26 11 -11 -3 -20 -1
-20 4 0 14 -36 29 -84 34 -37 3 -46 1 -46 -11z m130 -229 c0 -8 -7 -15 -15
-15 -8 0 -15 7 -15 15 0 8 7 15 15 15 8 0 15 -7 15 -15z m170 -305 c0 -5 -5
-10 -11 -10 -5 0 -7 5 -4 10 3 6 8 10 11 10 2 0 4 -4 4 -10z"/>
<path d="M4500 4900 c0 -5 5 -10 11 -10 5 0 7 -5 4 -10 -4 -6 -11 -8 -16 -4
-10 6 -49 -32 -49 -47 0 -5 -8 -6 -17 -2 -10 3 -5 -4 11 -17 23 -19 32 -21 47
-12 23 15 29 15 29 2 0 -5 -6 -10 -14 -10 -8 0 -16 -10 -18 -22 -2 -13 -10
-23 -18 -24 -37 -2 -42 -5 -37 -18 7 -18 -39 -41 -47 -23 -2 7 -5 0 -5 -15 -1
-18 -6 -28 -16 -28 -8 0 -15 -5 -15 -11 0 -6 -6 -9 -12 -6 -7 2 -12 11 -10 18
3 12 1 12 -10 0 -10 -11 -10 -14 0 -18 19 -7 14 -23 -7 -23 -23 0 -30 -9 -33
-44 -2 -18 -8 -26 -21 -26 -10 0 -15 -5 -12 -10 4 -6 11 -7 17 -4 6 4 9 1 6
-7 -3 -8 -14 -15 -26 -17 -20 -3 -21 -6 -9 -22 7 -11 12 -35 11 -54 -3 -35 -3
-35 59 -55 22 -8 27 -6 27 7 0 13 3 12 15 -4 9 -12 14 -14 15 -6 0 17 21 -2
39 -36 7 -12 16 -20 22 -17 5 4 9 -5 9 -19 0 -14 5 -26 10 -26 6 0 10 7 10 15
0 8 5 15 10 15 6 0 10 -5 10 -11 0 -5 5 -7 10 -4 6 4 18 1 27 -7 14 -11 16
-11 9 1 -6 9 -4 12 5 9 8 -3 14 -11 14 -18 0 -7 6 -15 13 -18 7 -2 12 0 11 5
-5 27 1 33 21 23 11 -6 25 -8 30 -5 6 3 10 2 10 -2 0 -9 9 -11 65 -14 37 -2
98 24 133 57 15 13 31 24 37 24 5 0 18 18 28 40 10 22 23 37 29 34 5 -3 8 1 6
9 -2 8 8 25 21 36 23 20 26 20 40 6 15 -15 14 -17 -2 -26 -13 -8 -15 -15 -8
-28 7 -13 5 -22 -10 -35 -11 -9 -19 -22 -17 -28 6 -17 30 -22 27 -7 -3 27 1
39 15 39 8 0 16 -5 18 -12 2 -6 10 -8 17 -4 9 6 9 11 1 21 -8 9 -6 14 6 19 13
5 15 9 6 18 -18 18 -15 28 6 21 9 -3 14 -3 10 2 -4 4 0 14 10 21 9 7 13 16 9
21 -5 4 -14 1 -20 -8 -11 -15 -51 -23 -42 -9 3 4 -16 25 -40 46 -36 30 -45 44
-45 70 0 18 -4 36 -10 39 -5 3 -10 14 -10 23 0 11 -13 23 -32 30 -25 9 -30 15
-19 21 11 7 9 12 -10 22 -13 6 -30 18 -37 26 -7 7 -25 14 -40 14 -27 1 -27 1
3 8 l30 8 -26 12 c-20 10 -32 10 -48 2 -17 -10 -21 -9 -21 3 0 10 -6 13 -17 9
-12 -5 -14 -3 -8 8 7 11 6 12 -6 3 -16 -14 -139 -25 -139 -14 0 4 15 15 34 24
19 9 37 23 40 32 9 23 1 28 -16 11 -13 -14 -52 -37 -62 -37 -2 0 -3 16 0 35 3
26 1 35 -11 35 -8 0 -15 -4 -15 -10z m-186 -306 c3 -8 2 -12 -4 -9 -6 3 -10
10 -10 16 0 14 7 11 14 -7z m317 1 c-1 -15 -24 -12 -29 3 -3 9 2 13 12 10 10
-1 17 -7 17 -13z m179 -25 c0 -11 -4 -20 -10 -20 -5 0 -10 9 -10 20 0 11 5 20
10 20 6 0 10 -9 10 -20z m-311 -105 c0 -5 -6 1 -14 15 -8 14 -14 30 -14 35 0
6 6 -1 14 -15 8 -14 14 -29 14 -35z"/>
<path d="M2585 4820 c-13 -6 -15 -9 -5 -9 8 0 22 4 30 9 18 12 2 12 -25 0z"/>
<path d="M2544 4776 c-8 -9 -8 -17 1 -29 13 -18 31 -24 20 -8 -3 5 -1 12 4 16
10 6 4 35 -8 35 -3 -1 -11 -7 -17 -14z"/>
<path d="M2587 4774 c3 -8 11 -14 19 -14 21 0 17 17 -5 23 -14 3 -18 1 -14 -9z"/>
<path d="M2736 4589 c10 -12 17 -24 14 -28 -3 -3 6 -7 18 -9 23 -4 23 -3 -6
27 -32 34 -56 43 -26 10z"/>
<path d="M2763 4480 c1 -13 7 -20 17 -18 20 4 19 32 -2 36 -12 2 -16 -3 -15
-18z"/>
<path d="M2825 4360 c3 -5 8 -10 11 -10 2 0 4 5 4 10 0 6 -5 10 -11 10 -5 0
-7 -4 -4 -10z"/>
<path d="M3340 4351 c0 -5 7 -12 16 -15 14 -5 15 -4 4 9 -14 17 -20 19 -20 6z"/>
<path d="M3432 4351 c-11 -6 -9 -9 6 -13 15 -4 19 -2 15 8 -6 16 -4 16 -21 5z"/>
<path d="M3335 4320 c3 -5 11 -10 16 -10 6 0 7 5 4 10 -3 6 -11 10 -16 10 -6
0 -7 -4 -4 -10z"/>
<path d="M3297 4287 c-17 -21 -17 -22 0 -26 10 -2 24 -8 31 -14 10 -8 12 -5 8
16 -6 32 -4 32 32 10 l27 -16 -20 20 c-31 32 -57 36 -78 10z"/>
<path d="M2977 4255 c3 -8 9 -12 14 -9 12 7 11 11 -5 17 -10 4 -13 1 -9 -8z"/>
<path d="M2829 4252 c-1 -4 -1 -10 0 -14 0 -5 -4 -8 -11 -8 -9 0 -9 -3 -1 -11
13 -13 29 -6 42 19 7 14 5 18 -10 19 -10 1 -20 -1 -20 -5z"/>
<path d="M2840 4175 c-11 -13 -10 -15 4 -9 21 8 21 -5 -1 -22 -10 -7 -15 -16
-11 -20 5 -4 16 0 25 8 10 9 25 18 33 21 12 4 12 6 -2 6 -9 1 -21 8 -26 17 -8
14 -10 14 -22 -1z"/>
<path d="M2910 4139 c0 -5 5 -7 10 -4 6 3 10 8 10 11 0 2 -4 4 -10 4 -5 0 -10
-5 -10 -11z"/>
<path d="M2904 4042 c-14 -9 -38 -71 -31 -78 12 -12 28 8 22 27 -5 16 -3 20
10 17 11 -2 19 4 20 14 4 21 -6 30 -21 20z"/>
<path d="M3136 3997 c-11 -8 -16 -20 -13 -28 4 -10 6 -10 6 3 1 11 6 15 16 12
9 -4 15 0 15 10 0 19 -1 20 -24 3z"/>
<path d="M3067 3953 c-3 -5 6 -9 20 -10 19 -1 22 1 12 8 -17 11 -26 11 -32 2z"/>
<path d="M2845 3910 c-3 -5 -1 -10 4 -10 6 0 11 5 11 10 0 6 -2 10 -4 10 -3 0
-8 -4 -11 -10z"/>
<path d="M3036 3901 c-17 -19 -17 -19 1 -15 11 3 20 12 20 20 0 18 0 18 -21
-5z"/>
<path d="M2705 3880 c-19 -8 -19 -9 3 -9 12 -1 22 4 22 9 0 6 -1 10 -2 9 -2 0
-12 -4 -23 -9z"/>
<path d="M5137 3863 c-11 -11 -8 -31 6 -36 10 -4 13 2 9 19 -5 26 -6 27 -15
17z"/>
<path d="M5025 3719 c-10 -15 1 -23 20 -15 9 3 13 10 10 16 -8 13 -22 13 -30
-1z"/>
<path d="M5000 3671 c-14 -9 -26 -19 -28 -23 -2 -5 -10 -8 -18 -8 -8 0 -13 -5
-11 -12 1 -6 -7 -16 -19 -22 -11 -6 -28 -19 -37 -28 -9 -9 -21 -18 -27 -20
-19 -6 1 -38 24 -39 14 0 16 -2 6 -6 -8 -3 -18 -11 -22 -17 -6 -8 -8 -8 -8 0
0 17 -58 13 -65 -5 -3 -8 -3 -12 1 -8 4 4 13 2 20 -4 17 -14 78 -2 103 20 16
14 18 20 8 31 -10 10 -8 12 11 7 18 -4 25 0 34 21 6 15 11 30 10 35 -1 4 3 7
9 7 5 0 7 5 3 12 -5 7 -2 9 8 5 12 -4 14 -1 11 14 -3 10 0 26 7 34 19 22 9 25
-20 6z"/>
<path d="M4732 3486 c-24 -24 -53 -61 -64 -82 -36 -67 -74 -204 -56 -204 16 0
152 72 178 95 85 76 114 105 104 105 -6 0 -29 -14 -50 -31 -22 -18 -46 -28
-56 -25 -13 3 -18 -1 -16 -12 3 -16 -66 -58 -109 -66 -18 -4 -21 0 -18 22 1
14 9 30 16 36 8 6 14 17 15 24 2 29 5 33 30 42 17 7 24 15 20 25 -5 14 -1 16
37 19 22 2 31 28 13 38 -24 13 -4 43 30 46 40 3 43 12 3 11 -26 0 -44 -10 -77
-43z"/>
<path d="M4950 3480 c0 -5 7 -7 15 -4 8 4 15 8 15 10 0 2 -7 4 -15 4 -8 0 -15
-4 -15 -10z"/>
<path d="M4923 3442 c-15 -11 -20 -22 -14 -30 6 -10 12 -7 25 13 22 33 18 39
-11 17z"/>
<path d="M4339 3403 c-1 -16 -7 -39 -15 -58 -7 -17 -6 -18 8 -7 9 7 16 27 16
43 -1 26 -7 41 -9 22z"/>
<path d="M3089 3225 c-1 -3 -2 -8 -3 -12 -1 -5 -5 -13 -9 -19 -4 -7 0 -15 9
-18 23 -9 27 -8 21 9 -4 8 -2 17 4 20 5 4 7 11 4 16 -7 10 -24 12 -26 4z"/>
<path d="M2990 3210 c0 -5 5 -10 10 -10 6 0 10 5 10 10 0 6 -4 10 -10 10 -5 0
-10 -4 -10 -10z"/>
<path d="M3034 3191 c5 -8 4 -16 -4 -21 -7 -4 -11 -13 -9 -19 3 -7 11 -4 21 8
15 18 15 21 0 33 -13 11 -14 11 -8 -1z"/>
<path d="M4330 3170 c0 -5 5 -10 11 -10 5 0 7 5 4 10 -3 6 -8 10 -11 10 -2 0
-4 -4 -4 -10z"/>
<path d="M4581 3104 c-29 -77 -16 -88 20 -17 33 66 34 73 15 73 -7 0 -23 -25
-35 -56z"/>
<path d="M4340 3131 c0 -5 5 -13 10 -16 6 -3 10 -2 10 4 0 5 -4 13 -10 16 -5
3 -10 2 -10 -4z"/>
<path d="M3030 3120 c-10 -6 -5 -9 18 -8 18 1 32 5 32 10 0 11 -31 10 -50 -2z"/>
<path d="M4320 3090 c0 -5 7 -10 16 -10 8 0 12 5 9 10 -3 6 -10 10 -16 10 -5
0 -9 -4 -9 -10z"/>
<path d="M3166 3051 c-3 -5 1 -11 9 -15 9 -3 15 0 15 9 0 16 -16 20 -24 6z"/>
<path d="M4321 3036 c2 -2 15 -9 29 -15 24 -11 24 -11 6 3 -16 13 -49 24 -35
12z"/>
<path d="M2882 3000 c-10 -16 -10 -20 1 -20 6 0 18 9 25 20 10 16 10 20 -1 20
-6 0 -18 -9 -25 -20z"/>
<path d="M4300 3000 c-9 -6 -10 -10 -3 -10 6 0 15 5 18 10 8 12 4 12 -15 0z"/>
<path d="M3050 2959 c0 -5 5 -7 10 -4 6 3 10 8 10 11 0 2 -4 4 -10 4 -5 0 -10
-5 -10 -11z"/>
<path d="M4035 2950 c3 -5 10 -10 16 -10 5 0 9 5 9 10 0 6 -7 10 -16 10 -8 0
-12 -4 -9 -10z"/>
<path d="M3085 2925 c-39 -32 -29 -32 15 0 19 14 30 25 24 25 -5 -1 -22 -12
-39 -25z"/>
<path d="M4537 2910 c-9 -11 -17 -30 -17 -41 0 -17 -5 -20 -27 -16 -16 2 -23
2 -17 0 7 -2 11 -15 10 -28 -1 -22 -2 -22 -18 -8 -10 8 -24 13 -31 10 -8 -3
-24 1 -36 9 -17 12 -21 13 -21 2 0 -8 5 -19 12 -26 9 -9 9 -12 -2 -12 -11 0
-11 -3 -2 -12 14 -14 16 -28 4 -28 -5 0 -15 11 -22 25 -7 13 -16 22 -20 20 -4
-3 -15 6 -24 20 -10 15 -12 25 -6 25 6 0 9 4 5 10 -3 5 -15 0 -26 -11 -15 -15
-17 -24 -9 -39 7 -12 7 -21 0 -25 -5 -3 -10 -19 -10 -35 0 -23 4 -28 18 -24
14 5 15 4 2 -5 -13 -9 -12 -12 8 -17 15 -4 22 -14 22 -30 0 -33 16 -38 48 -14
15 11 51 39 80 61 30 22 51 43 48 46 -2 3 4 14 15 26 10 11 19 28 19 37 0 9 3
20 7 24 7 6 15 76 10 76 -2 0 -10 -9 -20 -20z m-201 -136 c-4 -9 -2 -22 4 -29
8 -9 6 -14 -5 -19 -9 -3 -13 -2 -10 4 3 6 2 10 -3 10 -13 0 -10 33 3 42 15 12
18 10 11 -8z"/>
<path d="M4325 2890 c3 -5 8 -10 11 -10 2 0 4 5 4 10 0 6 -5 10 -11 10 -5 0
-7 -4 -4 -10z"/>
<path d="M3927 2869 c7 -7 15 -10 18 -7 3 3 -2 9 -12 12 -14 6 -15 5 -6 -5z"/>
<path d="M4353 2865 c0 -8 4 -15 9 -15 4 0 8 4 8 9 0 6 -4 12 -8 15 -5 3 -9
-1 -9 -9z"/>
<path d="M3950 2841 c0 -6 4 -13 10 -16 6 -3 7 1 4 9 -7 18 -14 21 -14 7z"/>
<path d="M3040 2830 c-9 -6 -10 -10 -3 -10 6 0 15 5 18 10 8 12 4 12 -15 0z"/>
<path d="M2900 2744 c0 -8 5 -12 10 -9 6 4 8 11 5 16 -9 14 -15 11 -15 -7z"/>
<path d="M4246 2715 c-4 -10 -3 -21 1 -24 10 -7 47 -63 49 -73 1 -5 2 -13 3
-18 1 -7 7 -7 21 0 22 12 18 33 -12 65 -10 11 -26 31 -36 44 -17 22 -19 23
-26 6z"/>
<path d="M3990 2695 c0 -8 0 -17 0 -20 0 -16 15 -2 16 15 1 11 -3 20 -7 20 -5
0 -9 -7 -9 -15z"/>
<path d="M4216 2683 c-11 -11 -6 -23 9 -23 8 0 15 4 15 9 0 13 -16 22 -24 14z"/>
<path d="M4247 2622 c-4 -16 -1 -31 7 -37 8 -6 10 -18 6 -30 -4 -11 -6 -23 -3
-27 2 -5 -1 -8 -8 -8 -10 0 -10 -3 -1 -12 10 -10 15 -10 22 2 5 8 6 18 4 22
-3 4 1 8 9 8 18 0 13 23 -13 75 l-18 35 -5 -28z"/>
<path d="M4020 2632 c0 -6 5 -14 10 -17 6 -4 8 -10 5 -15 -3 -5 -2 -11 3 -14
14 -9 11 32 -4 45 -9 7 -14 8 -14 1z"/>
<path d="M3995 2600 c10 -11 20 -20 23 -20 3 0 -3 9 -13 20 -10 11 -20 20 -23
20 -3 0 3 -9 13 -20z"/>
<path d="M4207 2423 c-4 -23 -4 -49 -1 -58 5 -13 9 -11 21 11 8 16 10 30 4 33
-5 3 -11 17 -13 31 -3 20 -5 16 -11 -17z"/>
<path d="M2385 2270 c3 -5 8 -10 11 -10 2 0 4 5 4 10 0 6 -5 10 -11 10 -5 0
-7 -4 -4 -10z"/>
<path d="M3070 2240 c0 -5 6 -10 14 -10 8 0 18 5 21 10 3 6 -3 10 -14 10 -12
0 -21 -4 -21 -10z"/>
<path d="M3126 2179 c-18 -17 -18 -19 -2 -19 9 0 19 7 23 15 8 23 0 25 -21 4z"/>
<path d="M2365 2150 c3 -5 8 -10 11 -10 2 0 4 5 4 10 0 6 -5 10 -11 10 -5 0
-7 -4 -4 -10z"/>
<path d="M2710 1930 c-9 -6 -7 -11 8 -19 13 -7 19 -17 16 -26 -4 -8 -1 -15 5
-15 6 0 11 6 11 13 0 6 6 1 13 -13 7 -14 20 -26 30 -28 23 -5 22 15 -3 28 -11
6 -20 15 -20 21 0 6 5 7 10 4 15 -9 12 11 -2 22 -19 15 -54 22 -68 13z"/>
<path d="M2696 1882 c-2 -4 4 -14 15 -20 19 -12 19 -11 9 8 -12 22 -16 24 -24
12z"/>
<path d="M2690 1831 c0 -5 5 -13 10 -16 6 -3 10 -2 10 4 0 5 -4 13 -10 16 -5
3 -10 2 -10 -4z"/>
<path d="M2380 1692 c0 -38 21 -80 43 -86 19 -5 19 0 -6 71 -14 43 -37 52 -37
15z"/>
<path d="M2440 1641 c0 -5 7 -12 16 -15 14 -5 15 -4 4 9 -14 17 -20 19 -20 6z"/>
<path d="M2365 1174 c56 -53 65 -59 65 -40 0 9 -6 16 -14 16 -7 0 -19 7 -26
16 -8 8 -23 20 -34 26 -14 7 -11 1 9 -18z"/>
<path d="M2329 1152 c13 -24 50 -56 57 -49 8 8 -6 28 -15 22 -5 -2 -13 7 -19
20 -7 14 -16 25 -22 25 -7 0 -8 -6 -1 -18z"/>
<path d="M2274 1032 c-7 -4 4 -22 32 -49 24 -23 44 -40 44 -37 0 5 -62 94 -64
94 -1 0 -6 -4 -12 -8z"/>
<path d="M3256 1002 c-9 -14 14 -83 29 -88 8 -3 11 -12 8 -20 -3 -8 1 -14 9
-14 7 0 19 14 25 31 10 26 9 34 -2 46 -8 8 -15 22 -15 31 0 12 -3 13 -12 4
-17 -17 -29 -15 -22 3 6 16 -11 21 -20 7z"/>
<path d="M3430 817 c0 -9 9 -31 20 -49 l20 -33 0 28 c0 15 -9 37 -20 49 -17
18 -20 19 -20 5z"/>
<path d="M6082 543 c-6 -3 -10 -9 -6 -14 3 -5 0 -9 -5 -9 -6 0 -11 -4 -11 -10
0 -14 26 -12 38 3 13 15 2 36 -16 30z"/>
<path d="M2155 380 c-3 -5 0 -10 9 -10 8 0 17 -6 19 -12 3 -7 6 -3 6 10 1 22
-22 31 -34 12z"/>
<path d="M5898 263 c7 -3 16 -2 19 1 4 3 -2 6 -13 5 -11 0 -14 -3 -6 -6z"/>
</g>
</svg>
